<svg xmlns="http://www.w3.org/2000/svg" width="1870" height="561" viewBox="0 0 1870 561">
<g>
<path d="M 745.50 534.52 C734.58,536.30 727.55,536.29 719.13,534.46 C705.16,531.43 693.27,523.38 688.25,513.54 C684.89,506.97 684.06,495.73 686.35,487.92 C692.95,465.42 721.53,442.13 766.00,423.02 C789.58,412.89 828.60,400.94 846.22,398.45 C852.41,397.57 853.53,396.18 851.97,391.29 C848.19,379.47 838.89,368.40 826.60,361.08 C810.92,351.76 776.86,343.00 756.27,343.00 L 749.29 343.00 L 748.78 380.17 C748.30,414.62 748.14,417.43 746.45,418.66 C744.93,419.77 744.28,419.77 742.56,418.63 C740.56,417.30 740.49,416.22 739.97,380.38 C739.68,360.10 739.34,343.39 739.22,343.25 C739.10,343.11 737.31,342.96 735.25,342.90 C725.69,342.65 723.41,339.30 729.46,334.39 C731.43,332.80 734.49,330.30 736.27,328.83 L 739.50 326.17 L 740.00 294.33 L 740.50 262.50 L 743.75 262.19 C746.48,261.92 747.16,262.30 748.00,264.50 C748.57,266.01 749.00,278.37 749.00,293.57 C749.00,314.80 749.26,320.00 750.32,320.00 C752.22,320.00 783.83,300.08 798.73,289.50 C820.51,274.03 834.96,258.53 834.99,250.63 C835.01,245.86 828.82,240.62 819.96,237.89 C813.77,235.98 810.29,235.60 799.50,235.62 C778.06,235.67 755.94,241.23 736.03,251.57 C722.35,258.68 715.20,265.15 710.54,274.64 C706.79,282.26 705.07,283.69 701.96,281.74 C694.61,277.16 710.55,259.21 731.59,248.37 C755.71,235.94 780.22,230.33 806.31,231.26 C821.50,231.80 827.71,233.30 836.77,238.61 C842.88,242.19 845.77,248.48 844.01,254.38 C842.21,260.39 838.23,265.61 828.26,275.05 C817.34,285.41 798.18,299.38 776.13,313.05 C752.06,327.99 749.22,329.58 748.98,331.50 C748.95,331.76 748.96,332.02 748.98,332.32 C748.99,332.51 749.00,332.72 749.00,332.95 C749.00,336.74 751.28,338.00 758.18,338.01 C787.14,338.05 825.89,349.68 843.19,363.52 C850.43,369.31 857.28,378.40 859.94,385.76 C862.86,393.86 863.32,394.46 866.85,394.81 C870.70,395.20 871.04,397.57 867.48,399.19 C864.64,400.49 864.35,401.44 863.58,412.00 C862.57,426.01 855.89,443.82 845.04,461.47 C820.84,500.82 783.31,528.36 745.50,534.52 ZM 1688.06 455.97 C1683.32,458.50 1676.17,455.95 1672.32,450.35 C1669.24,445.87 1666.31,438.15 1664.66,430.16 C1663.83,426.12 1662.90,422.57 1662.60,422.27 C1662.30,421.97 1660.29,423.31 1658.14,425.26 C1648.76,433.73 1636.95,430.43 1630.90,417.62 C1629.30,414.25 1628.00,410.94 1628.00,410.25 C1628.00,408.40 1627.45,408.62 1620.87,413.09 C1609.32,420.93 1595.90,425.52 1587.69,424.43 C1579.98,423.41 1572.71,416.62 1569.71,407.64 C1569.48,406.93 1568.46,407.12 1566.80,408.21 C1564.39,409.79 1564.28,410.24 1564.75,416.74 C1565.20,423.02 1565.02,423.86 1562.71,426.55 C1560.47,429.15 1559.52,429.50 1554.65,429.50 C1549.93,429.50 1548.70,429.08 1546.12,426.62 L 1543.11 423.73 L 1540.08 426.28 C1533.17,432.09 1525.45,431.92 1522.95,425.88 C1521.78,423.05 1522.28,408.05 1523.66,404.43 C1524.88,401.26 1521.34,403.31 1519.00,407.14 C1513.48,416.17 1500.76,424.90 1495.16,423.51 C1491.33,422.56 1488.13,419.19 1487.40,415.34 C1486.69,411.52 1485.55,411.09 1483.97,414.05 C1482.30,417.18 1476.94,419.99 1472.65,420.00 C1469.61,420.00 1468.14,419.31 1465.65,416.73 C1463.92,414.93 1462.04,412.62 1461.47,411.61 C1460.48,409.83 1460.32,409.84 1456.97,411.88 C1455.06,413.04 1451.83,413.99 1449.79,414.00 C1447.06,414.00 1445.78,414.55 1444.96,416.07 C1443.25,419.26 1435.07,424.00 1431.25,424.00 C1423.40,424.00 1418.01,418.05 1418.00,409.38 C1418.00,399.61 1422.56,391.01 1429.40,387.91 C1434.43,385.62 1442.75,385.43 1445.75,387.54 C1448.62,389.55 1450.25,395.85 1449.83,403.39 C1449.44,410.55 1450.65,411.39 1456.05,407.73 C1459.09,405.67 1459.46,404.95 1459.17,401.72 C1459.00,399.70 1459.36,395.56 1460.00,392.52 C1461.20,386.71 1463.47,384.38 1466.87,385.46 C1468.44,385.96 1468.67,387.30 1468.67,396.26 C1468.68,410.88 1472.15,417.02 1477.54,411.96 C1480.32,409.35 1483.21,402.22 1485.51,392.32 C1487.43,384.04 1489.28,381.00 1492.40,381.00 C1496.68,381.00 1497.07,382.67 1496.36,398.22 C1495.72,412.25 1495.77,412.77 1497.90,414.90 C1499.44,416.44 1500.76,416.91 1502.30,416.45 C1508.36,414.66 1520.39,403.00 1516.18,403.00 C1515.13,403.00 1513.08,402.07 1511.63,400.93 C1509.46,399.21 1509.00,398.04 1509.00,394.15 C1509.00,387.60 1511.04,385.00 1516.16,385.00 L 1520.21 385.00 L 1519.59 389.25 C1518.25,398.42 1518.27,398.54 1521.00,398.09 C1531.96,396.31 1533.46,398.15 1531.95,411.46 C1530.84,421.25 1531.27,424.00 1533.93,424.00 C1536.32,424.00 1544.43,415.22 1547.07,409.79 L 1549.17 405.46 L 1545.59 400.13 C1541.12,393.48 1540.82,389.08 1544.63,386.07 C1549.27,382.42 1562.98,383.99 1560.56,387.90 C1560.06,388.71 1558.40,388.88 1555.42,388.44 C1550.35,387.68 1549.25,388.91 1550.98,393.45 C1552.28,396.86 1559.13,405.90 1560.47,405.96 C1561.00,405.98 1563.36,405.26 1565.72,404.36 C1569.37,402.97 1570.18,402.12 1571.22,398.61 C1572.82,393.23 1580.46,385.52 1585.62,384.09 C1590.45,382.75 1601.02,382.68 1604.41,383.96 C1607.84,385.27 1608.83,389.42 1606.37,392.14 C1603.21,395.63 1599.30,397.04 1590.99,397.68 C1586.59,398.02 1582.61,398.79 1582.14,399.40 C1579.00,403.45 1580.62,410.58 1585.70,415.04 C1589.15,418.07 1589.68,418.22 1595.29,417.71 C1599.84,417.29 1603.85,415.86 1612.37,411.57 C1621.03,407.22 1624.61,405.78 1625.88,403.20 C1626.75,401.42 1626.52,399.10 1626.11,394.89 C1626.03,394.00 1625.93,393.02 1625.83,391.95 C1624.62,378.19 1625.39,323.82 1626.97,312.50 C1629.45,294.65 1634.29,278.98 1638.67,274.60 C1640.65,272.62 1642.28,272.00 1645.48,272.00 C1650.38,272.00 1651.89,273.33 1655.21,280.54 C1657.30,285.06 1657.49,286.89 1657.44,301.00 C1657.34,325.84 1651.67,353.66 1641.57,378.91 C1635.58,393.89 1634.96,397.98 1637.12,408.20 C1638.56,414.98 1642.40,422.61 1645.09,424.05 C1648.24,425.73 1651.65,424.41 1656.95,419.45 L 1661.72 414.99 L 1662.30 396.24 C1662.97,374.89 1664.52,363.52 1669.55,343.24 C1674.32,323.99 1680.12,307.49 1686.24,295.75 C1696.31,276.44 1709.80,268.13 1722.47,273.42 C1733.86,278.18 1730.40,300.64 1712.92,335.32 C1704.37,352.27 1694.15,369.67 1685.31,382.33 L 1679.84 390.16 L 1682.62 394.18 C1690.12,405.00 1701.43,413.92 1707.73,413.98 C1712.37,414.02 1718.09,410.71 1722.97,405.14 C1726.53,401.09 1728.22,399.82 1729.00,400.60 C1729.78,401.38 1728.79,403.41 1725.44,407.86 C1715.11,421.61 1704.14,424.57 1693.51,416.46 C1688.04,412.28 1687.54,412.20 1689.34,415.75 C1693.62,424.20 1695.03,445.58 1691.72,451.72 C1690.76,453.49 1689.11,455.40 1688.06,455.97 ZM 849.00 197.24 C849.00,197.66 842.60,198.00 834.78,198.00 C821.62,198.00 820.72,197.88 822.78,196.44 L 825.00 194.89 L 825.00 145.51 C825.00,97.01 824.96,96.12 823.00,95.50 C821.90,95.15 821.00,94.40 821.00,93.83 C821.00,93.13 833.90,92.94 861.25,93.24 C899.59,93.65 901.83,93.78 908.38,95.92 C924.68,101.23 932.53,116.74 927.50,133.67 C925.83,139.31 919.54,147.15 914.64,149.70 C912.91,150.60 909.17,152.05 906.33,152.92 L 901.15 154.50 L 913.07 171.50 C927.35,191.89 932.00,197.32 934.39,196.40 C935.33,196.04 937.14,193.67 938.42,191.13 C942.08,183.85 980.00,98.13 980.00,97.12 C980.00,96.62 979.33,95.95 978.50,95.64 C977.67,95.32 977.00,94.60 977.00,94.03 C977.00,93.37 982.52,93.00 992.50,93.00 C1002.48,93.00 1008.00,93.37 1008.00,94.03 C1008.00,94.60 1007.33,95.32 1006.50,95.64 C1005.67,95.95 1005.00,96.57 1005.00,97.01 C1005.00,97.45 1012.01,112.81 1020.58,131.15 C1029.15,149.49 1039.36,171.43 1043.27,179.89 C1047.96,190.06 1050.99,195.45 1052.19,195.76 C1053.18,196.02 1054.00,196.63 1054.00,197.12 C1054.00,197.60 1047.36,197.99 1039.25,197.97 C1026.42,197.94 1024.74,197.76 1026.34,196.54 C1028.63,194.81 1028.28,193.60 1021.86,180.75 L 1016.98 171.00 L 967.15 171.00 L 962.08 181.63 C957.11,192.02 955.98,196.00 958.00,196.00 C958.55,196.00 959.00,196.45 959.00,197.00 C959.00,197.64 948.79,198.00 930.38,198.00 C904.69,198.00 901.89,197.84 903.04,196.46 C904.12,195.15 903.10,193.13 896.41,183.31 C892.06,176.94 885.57,167.70 881.99,162.79 L 875.47 153.85 L 860.49 153.79 L 845.50 153.73 L 845.23 173.85 C844.97,193.10 845.05,194.01 846.98,195.22 C848.09,195.91 849.00,196.82 849.00,197.24 ZM 1327.47 507.09 C1316.93,510.80 1306.24,510.43 1298.16,506.09 C1294.00,503.86 1287.91,497.74 1285.68,493.57 C1283.92,490.26 1283.51,487.81 1283.51,480.50 C1283.50,472.31 1283.80,470.88 1286.86,464.62 C1291.25,455.65 1302.62,443.72 1313.36,436.83 C1327.69,427.62 1349.03,419.25 1369.00,414.99 C1386.17,411.33 1386.90,411.08 1388.68,408.36 C1392.49,402.56 1401.91,353.61 1404.37,326.88 C1407.66,291.18 1407.54,290.08 1402.15,305.75 C1397.71,318.66 1384.64,345.27 1377.22,356.50 C1362.86,378.24 1348.69,389.98 1331.37,394.49 C1324.13,396.38 1320.20,396.37 1312.09,394.46 C1302.25,392.14 1294.45,387.47 1285.44,378.51 C1278.49,371.59 1276.61,368.93 1271.71,359.00 C1261.94,339.18 1257.16,315.32 1256.30,282.00 C1255.70,258.89 1256.57,248.19 1260.17,234.69 C1262.50,225.94 1264.83,223.42 1269.49,224.59 C1270.27,224.78 1270.86,224.93 1271.24,225.29 C1272.38,226.38 1271.69,229.39 1268.92,241.44 L 1268.91 241.50 C1266.87,250.38 1266.60,254.13 1266.58,275.00 C1266.54,296.36 1266.80,299.94 1269.33,314.36 C1273.02,335.30 1275.97,345.36 1282.07,357.80 C1288.52,370.94 1297.11,380.45 1306.85,385.24 C1312.57,388.06 1314.48,388.50 1320.98,388.47 C1327.28,388.44 1329.59,387.93 1335.16,385.31 C1349.28,378.69 1366.65,357.75 1378.02,333.65 C1389.33,309.68 1395.25,291.26 1402.51,257.50 C1405.64,242.96 1407.54,236.12 1408.71,235.25 C1411.12,233.45 1414.42,233.71 1417.14,235.91 L 1419.50 237.83 L 1419.41 260.66 C1419.11,332.96 1406.04,409.22 1387.70,445.61 C1383.15,454.64 1371.77,471.61 1364.71,479.88 C1354.26,492.15 1339.67,502.81 1327.47,507.09 ZM 717.55 527.58 C733.64,533.06 753.55,529.46 776.00,517.01 C787.92,510.40 792.07,507.54 802.86,498.55 C828.46,477.22 852.15,436.58 853.76,411.25 L 854.28 403.00 L 851.18 403.00 C847.46,403.00 824.89,408.69 809.00,413.64 C776.25,423.84 744.13,439.93 724.69,455.88 C710.01,467.93 700.33,483.65 699.31,497.09 C698.12,512.77 704.28,523.06 717.55,527.58 ZM 1286.49 197.53 C1283.19,198.33 1276.22,199.21 1271.00,199.47 C1231.49,201.49 1203.00,173.98 1207.93,138.56 C1211.09,115.85 1225.05,100.42 1248.00,94.30 C1257.12,91.87 1279.04,91.92 1288.00,94.39 C1309.67,100.37 1323.19,114.34 1326.94,134.62 C1332.41,164.21 1315.54,190.45 1286.49,197.53 ZM 953.34 428.63 C943.37,432.80 933.43,426.86 929.51,414.40 C928.58,411.43 927.65,409.00 927.44,409.00 C927.24,409.00 924.28,410.80 920.87,413.00 C902.36,424.97 888.29,427.61 878.99,420.88 C868.65,413.38 867.29,400.23 875.88,390.70 C880.94,385.10 885.95,383.05 894.68,383.02 C903.50,383.00 906.74,384.12 907.59,387.50 C908.93,392.86 902.51,396.79 890.99,397.68 C882.81,398.31 881.35,399.01 880.98,402.50 C880.38,408.17 881.13,410.37 885.02,414.25 C889.02,418.25 889.07,418.27 895.14,417.72 C899.87,417.29 903.73,415.91 912.37,411.57 C920.93,407.27 924.55,405.83 925.88,403.22 C926.84,401.34 926.60,398.84 926.16,394.20 C926.06,393.21 925.96,392.12 925.85,390.91 C924.36,373.71 925.35,323.64 927.45,310.00 C930.62,289.51 935.35,275.49 939.93,273.04 C943.77,270.98 949.00,271.79 951.90,274.89 C955.69,278.95 957.08,283.94 957.71,295.71 C958.90,317.92 951.43,355.23 940.52,381.61 C936.88,390.40 936.01,393.66 936.02,398.50 C936.03,409.21 940.79,422.04 945.57,424.21 C948.97,425.76 953.57,423.48 958.52,417.79 L 962.33 413.41 L 962.55 403.34 C962.80,391.17 964.19,386.24 967.59,385.39 C972.23,384.22 973.00,386.17 973.00,398.95 C973.00,410.21 973.10,410.74 975.56,413.05 L 978.11 415.46 L 981.78 413.48 C985.27,411.59 985.45,411.24 985.62,406.00 C985.85,398.53 988.44,392.64 993.30,388.47 C998.14,384.34 1002.34,383.01 1010.68,383.01 C1020.55,383.00 1023.95,385.07 1022.64,390.30 C1021.71,394.02 1015.27,396.92 1006.36,397.64 C1002.04,397.99 997.94,398.72 997.25,399.26 C996.55,399.81 996.00,402.42 996.00,405.14 C996.00,409.31 996.50,410.58 999.43,413.76 C1002.71,417.34 1003.12,417.50 1009.18,417.44 C1016.26,417.37 1025.64,413.85 1035.41,407.60 L 1040.95 404.06 L 1040.32 394.43 C1039.82,386.90 1039.98,384.63 1041.04,383.98 C1044.00,382.15 1045.69,384.71 1046.37,392.08 C1046.74,396.03 1047.30,399.67 1047.61,400.19 C1047.93,400.70 1048.31,403.24 1048.45,405.83 C1048.72,410.90 1052.23,420.00 1053.92,420.00 C1055.70,420.00 1058.63,412.95 1061.54,401.66 C1064.72,389.39 1066.77,386.00 1071.01,386.00 C1074.79,386.00 1075.32,387.11 1073.95,392.19 C1072.90,396.08 1072.99,396.57 1075.01,398.21 C1077.91,400.55 1078.67,400.47 1079.35,397.72 C1080.27,394.07 1087.04,386.89 1091.44,384.89 C1095.94,382.85 1108.06,382.31 1112.41,383.96 C1115.84,385.27 1116.83,389.42 1114.37,392.14 C1111.25,395.60 1107.42,396.99 1099.28,397.65 C1095.00,397.99 1090.94,398.72 1090.25,399.26 C1089.55,399.81 1089.00,402.44 1089.00,405.24 C1089.00,409.74 1089.40,410.64 1093.02,414.25 C1096.98,418.22 1097.12,418.27 1102.90,417.74 C1109.31,417.16 1120.67,412.30 1132.27,405.16 C1141.57,399.44 1143.69,399.71 1137.65,405.84 C1129.68,413.94 1113.18,422.65 1102.42,424.44 C1090.83,426.37 1078.00,416.70 1078.00,406.03 C1078.00,403.82 1077.53,403.00 1076.25,402.99 C1075.29,402.98 1073.58,402.73 1072.46,402.42 C1070.70,401.95 1070.23,402.57 1069.17,406.72 C1067.28,414.08 1063.56,421.41 1060.49,423.83 C1053.38,429.42 1046.42,424.19 1042.42,410.25 C1042.19,409.44 1039.37,410.76 1034.49,413.94 C1023.14,421.35 1009.95,425.77 1003.05,424.48 C998.44,423.62 993.03,420.77 990.16,417.68 L 987.81 415.17 L 983.55 418.18 C978.16,421.98 973.23,422.28 968.91,419.09 L 965.78 416.78 L 961.20 422.02 C958.68,424.90 955.14,427.88 953.34,428.63 ZM 661.76 197.04 C653.69,199.02 633.63,200.33 626.00,199.39 C616.14,198.17 605.64,195.50 598.21,192.33 C593.65,190.38 589.04,189.02 587.96,189.30 C586.88,189.58 586.00,189.41 586.00,188.92 C586.00,186.88 597.54,165.01 598.46,165.32 C599.00,165.50 599.76,167.16 600.13,169.00 C601.92,177.74 620.27,183.75 641.98,182.73 C654.99,182.12 663.58,179.57 668.19,174.97 C675.19,167.97 671.90,158.72 661.47,156.10 C659.01,155.48 647.44,154.55 635.75,154.03 C619.19,153.30 613.05,152.64 607.91,151.06 C594.37,146.87 588.01,138.85 588.03,126.00 C588.06,110.64 599.04,99.43 619.00,94.39 C624.75,92.94 630.01,92.51 641.50,92.53 C657.66,92.57 666.88,94.35 679.00,99.76 C682.03,101.11 685.92,102.18 687.65,102.14 L 690.80 102.07 L 685.65 112.23 C682.82,117.82 680.04,122.53 679.49,122.70 C678.93,122.87 678.03,122.01 677.49,120.78 C675.96,117.33 668.33,113.24 659.09,110.90 C651.97,109.10 648.68,108.85 637.59,109.25 C628.78,109.56 623.03,110.27 620.00,111.40 C610.98,114.78 605.81,123.02 609.34,128.39 C612.23,132.80 618.58,134.05 643.00,135.01 C671.93,136.14 678.69,137.79 686.29,145.62 C690.95,150.42 693.00,156.50 693.00,165.48 C693.00,181.36 682.49,191.98 661.76,197.04 ZM 1821.00 189.50 C1821.00,195.82 1820.66,200.98 1820.25,200.96 C1819.84,200.94 1818.92,200.27 1818.21,199.46 C1817.11,198.22 1809.63,198.00 1767.74,198.00 C1722.94,198.00 1718.75,197.86 1720.78,196.44 L 1723.00 194.89 L 1723.00 145.41 C1723.00,102.36 1722.81,95.86 1721.50,95.36 C1716.41,93.41 1724.53,93.00 1768.53,93.00 C1810.75,93.00 1817.14,92.80 1817.64,91.50 C1819.17,87.52 1820.00,91.04 1820.00,101.50 C1820.00,107.82 1819.74,113.00 1819.43,113.00 C1819.11,113.00 1818.18,112.32 1817.34,111.49 C1816.04,110.18 1810.87,110.01 1779.85,110.24 L 1743.86 110.50 L 1743.86 135.50 L 1767.91 135.77 C1791.10,136.03 1792.01,135.96 1793.22,134.02 C1793.91,132.91 1794.82,132.00 1795.24,132.00 C1795.66,132.00 1796.00,137.40 1796.00,144.00 C1796.00,150.60 1795.74,156.00 1795.43,156.00 C1795.11,156.00 1794.18,155.32 1793.36,154.50 C1792.11,153.25 1787.87,153.00 1767.93,153.00 L 1744.00 153.00 L 1744.00 166.88 C1744.00,180.44 1744.05,180.78 1746.25,181.37 C1747.49,181.70 1763.69,181.98 1782.25,181.99 C1814.68,182.00 1816.08,181.92 1818.00,180.00 C1819.10,178.90 1820.22,178.00 1820.50,178.00 C1820.78,178.00 1821.00,183.18 1821.00,189.50 ZM 720.00 197.00 C720.00,197.62 714.92,198.00 706.75,198.00 L 693.50 197.99 L 696.16 195.75 C698.05,194.15 704.89,179.80 719.91,145.94 C731.51,119.78 741.00,97.89 741.00,97.30 C741.00,96.70 740.33,95.95 739.50,95.64 C738.67,95.32 738.00,94.60 738.00,94.03 C738.00,93.37 743.52,93.00 753.50,93.00 C762.03,93.00 769.00,93.30 769.00,93.67 C769.00,94.04 768.33,95.08 767.52,95.98 C766.19,97.44 766.70,99.04 772.30,111.06 C775.75,118.45 785.97,140.36 795.01,159.75 C805.84,183.00 812.05,195.20 813.22,195.57 C814.20,195.88 815.00,196.55 815.00,197.07 C815.00,197.60 808.73,197.99 800.25,197.97 C787.77,197.94 785.77,197.73 787.25,196.61 C788.21,195.88 788.98,194.65 788.95,193.89 C788.92,193.13 786.52,187.77 783.61,182.00 L 778.34 171.50 L 753.25 171.23 L 728.17 170.97 L 723.09 181.61 C718.11,192.02 716.98,196.00 719.00,196.00 C719.55,196.00 720.00,196.45 720.00,197.00 ZM 1256.00 181.57 C1271.96,186.01 1291.79,180.02 1300.61,168.08 C1305.65,161.27 1307.30,154.59 1306.80,143.11 C1306.30,131.63 1303.82,125.86 1296.51,119.12 C1289.14,112.33 1282.28,109.66 1270.95,109.18 C1250.98,108.35 1238.08,115.07 1231.10,129.95 C1228.81,134.84 1228.50,136.75 1228.52,146.00 C1228.55,155.57 1228.80,157.01 1231.46,162.29 C1236.11,171.56 1244.94,178.49 1256.00,181.57 ZM 1676.15 197.09 C1660.94,200.98 1640.26,200.16 1625.68,195.09 C1607.77,188.85 1594.23,174.01 1591.02,157.11 C1585.44,127.69 1601.42,103.73 1632.55,94.83 C1639.15,92.95 1642.96,92.56 1655.00,92.54 C1670.77,92.51 1678.52,94.06 1693.50,100.21 C1697.66,101.92 1701.41,102.86 1702.75,102.53 C1703.99,102.22 1705.00,102.26 1705.00,102.61 C1705.00,103.82 1691.79,124.00 1691.00,124.00 C1690.57,124.00 1689.96,122.99 1689.65,121.75 C1688.19,115.95 1672.89,110.05 1657.25,109.26 C1639.89,108.38 1627.61,112.27 1619.30,121.29 C1614.02,127.02 1612.48,130.06 1610.96,137.80 C1608.35,151.04 1612.03,163.24 1621.07,171.37 C1627.23,176.91 1632.73,179.62 1641.62,181.51 C1655.05,184.35 1667.90,182.94 1679.82,177.30 C1686.91,173.95 1693.00,168.11 1693.00,164.65 C1693.00,163.19 1693.38,162.00 1693.85,162.00 C1694.53,162.00 1703.57,174.57 1707.30,180.69 C1707.85,181.60 1707.28,182.32 1705.48,183.01 C1704.03,183.56 1700.97,185.30 1698.67,186.87 C1691.77,191.60 1684.24,195.02 1676.15,197.09 ZM 1469.00 197.11 C1469.00,197.60 1462.60,198.00 1454.78,198.00 C1441.62,198.00 1440.72,197.88 1442.78,196.44 L 1445.00 194.89 L 1445.00 145.51 C1445.00,97.01 1444.96,96.12 1443.00,95.50 C1436.53,93.45 1444.55,93.00 1488.03,93.00 C1528.91,93.00 1535.14,92.80 1535.64,91.50 C1537.20,87.44 1538.00,91.15 1537.95,102.25 C1537.90,113.68 1537.79,114.35 1536.33,112.25 L 1534.76 110.00 L 1466.00 110.00 L 1466.00 136.00 L 1487.92 136.00 C1499.97,136.00 1510.55,135.73 1511.42,135.39 C1512.29,135.06 1513.00,134.16 1513.00,133.39 C1513.00,132.63 1513.45,132.00 1514.00,132.00 C1514.61,132.00 1515.00,136.67 1515.00,144.00 C1515.00,154.89 1514.18,158.53 1512.64,154.50 C1512.15,153.23 1508.58,153.00 1489.03,153.00 L 1466.00 153.00 L 1466.00 174.03 C1466.00,191.80 1466.23,195.15 1467.50,195.64 C1468.32,195.95 1469.00,196.62 1469.00,197.11 ZM 1364.19 195.96 L 1366.38 198.00 L 1351.94 197.95 C1338.52,197.90 1337.66,197.78 1339.75,196.33 L 1342.00 194.76 L 1342.00 145.45 C1342.00,97.01 1341.96,96.12 1340.00,95.50 C1333.53,93.45 1341.55,93.00 1385.03,93.00 C1425.91,93.00 1432.14,92.80 1432.64,91.50 C1434.19,87.46 1435.00,91.13 1435.00,102.19 L 1435.00 114.38 L 1432.96 112.19 C1430.94,110.02 1430.62,110.00 1396.43,110.00 L 1361.94 110.00 L 1362.50 135.50 L 1385.23 135.77 C1407.10,136.03 1408.01,135.96 1409.22,134.02 C1409.91,132.91 1410.82,132.00 1411.24,132.00 C1411.66,132.00 1412.00,137.40 1412.00,144.00 C1412.00,150.60 1411.61,156.00 1411.12,156.00 C1410.64,156.00 1409.68,155.32 1409.00,154.50 C1407.96,153.25 1403.99,153.00 1384.88,153.00 L 1362.00 153.00 L 1362.00 173.46 C1362.00,193.22 1362.07,193.99 1364.19,195.96 ZM 1301.50 495.54 C1306.22,497.26 1313.64,496.70 1321.38,494.04 C1343.70,486.36 1364.90,466.33 1376.98,441.50 C1382.62,429.93 1385.74,421.41 1384.72,420.39 C1383.71,419.37 1371.78,421.67 1360.32,425.09 C1332.50,433.38 1303.90,453.51 1295.20,470.91 C1289.20,482.92 1291.49,491.89 1301.50,495.54 ZM 1117.73 195.75 L 1120.50 197.99 L 1105.00 197.96 C1090.69,197.92 1089.71,197.81 1092.25,196.43 L 1095.00 194.94 L 1095.00 110.00 L 1076.06 110.00 C1058.27,110.00 1057.03,110.12 1055.72,111.99 C1054.95,113.09 1054.02,113.69 1053.66,113.33 C1052.66,112.33 1052.87,90.00 1053.88,90.00 C1054.36,90.00 1055.32,90.68 1056.00,91.50 C1057.08,92.80 1063.84,93.00 1105.65,93.00 C1147.76,93.00 1154.14,92.80 1154.64,91.50 C1156.17,87.52 1157.00,91.04 1157.00,101.50 C1157.00,107.82 1156.74,113.00 1156.43,113.00 C1156.11,113.00 1155.17,112.32 1154.34,111.48 C1153.06,110.20 1149.78,110.00 1134.16,110.23 L 1115.50 110.50 L 1115.23 152.00 L 1114.95 193.50 ZM 1575.56 196.47 C1577.29,197.78 1575.78,197.94 1561.50,197.93 C1546.75,197.92 1545.72,197.80 1548.25,196.43 L 1551.00 194.94 L 1551.00 145.54 C1551.00,97.01 1550.96,96.12 1549.00,95.50 C1543.77,93.84 1548.13,93.00 1562.00,93.00 C1570.25,93.00 1577.00,93.38 1577.00,93.84 C1577.00,94.30 1575.88,95.19 1574.50,95.82 L 1572.00 96.96 L 1572.00 145.98 C1572.00,172.94 1572.36,195.00 1572.81,195.00 C1573.25,195.00 1574.49,195.66 1575.56,196.47 ZM 1674.00 380.63 C1674.00,383.45 1674.38,384.88 1675.03,384.48 C1676.73,383.43 1689.13,364.42 1697.52,350.00 C1715.45,319.19 1724.62,291.95 1720.74,281.00 C1719.68,278.00 1719.00,277.46 1716.00,277.23 C1709.20,276.70 1703.35,282.48 1696.02,297.00 C1691.16,306.62 1686.75,319.15 1682.47,335.50 C1678.37,351.16 1674.00,374.44 1674.00,380.63 ZM 846.67 136.33 C847.75,137.42 893.16,137.08 897.22,135.96 C902.40,134.52 906.76,130.54 908.11,126.02 C909.09,122.77 908.98,121.63 907.38,118.38 C903.73,110.96 901.96,110.54 872.25,110.18 L 846.00 109.85 L 846.00 122.76 C846.00,129.86 846.30,135.97 846.67,136.33 ZM 1192.36 418.50 C1190.85,422.44 1189.92,423.56 1187.97,423.79 C1184.80,424.17 1183.00,422.36 1183.00,418.80 C1183.00,415.96 1181.68,415.09 1180.43,417.11 C1180.05,417.73 1177.75,419.11 1175.33,420.18 L 1170.91 422.13 L 1166.33 419.92 C1159.53,416.63 1157.52,411.53 1158.36,399.69 C1159.12,389.03 1160.49,385.62 1164.19,385.19 C1168.30,384.71 1169.26,387.55 1168.46,397.83 C1167.39,411.44 1170.86,417.19 1177.92,413.54 C1182.68,411.08 1183.26,409.03 1182.48,397.49 C1181.81,387.76 1181.89,387.13 1183.82,386.10 C1186.57,384.63 1187.57,384.71 1189.43,386.57 C1190.38,387.53 1191.00,389.88 1191.00,392.57 C1191.00,395.01 1191.41,397.00 1191.91,397.00 C1192.42,397.00 1194.49,394.74 1196.51,391.99 C1203.22,382.85 1214.08,379.08 1219.14,384.14 C1221.19,386.19 1221.25,386.87 1220.61,399.14 C1219.89,412.74 1220.53,416.00 1223.93,416.00 C1226.26,416.00 1230.72,410.99 1234.93,403.63 C1240.61,393.70 1240.76,399.71 1235.11,410.79 C1232.56,415.78 1226.99,421.35 1222.81,423.08 C1219.13,424.60 1215.98,423.24 1212.60,418.67 C1210.67,416.06 1210.52,414.71 1210.76,401.92 C1210.94,392.62 1210.67,388.00 1209.97,388.00 C1206.75,388.00 1198.70,401.94 1192.36,418.50 ZM 934.05 379.00 C934.07,383.95 935.25,381.59 939.97,367.20 C951.76,331.31 955.85,279.00 946.87,279.00 C942.82,279.00 940.49,289.13 937.53,319.64 C936.12,334.15 934.02,370.05 934.05,379.00 ZM 1634.70 369.70 C1634.51,375.86 1634.72,380.68 1635.16,380.40 C1636.73,379.43 1644.10,354.27 1646.99,340.00 C1651.99,315.35 1653.47,287.49 1650.12,281.22 C1648.48,278.16 1645.35,278.42 1643.64,281.75 C1639.84,289.15 1636.00,326.94 1634.70,369.70 ZM 976.37 148.75 L 974.03 154.00 L 991.01 154.00 C1000.36,154.00 1008.00,153.66 1008.00,153.25 C1007.99,151.49 992.39,118.63 991.40,118.30 C990.46,117.99 986.74,125.52 976.37,148.75 ZM 736.00 153.10 C736.00,153.60 743.40,154.00 752.50,154.00 C761.58,154.00 769.00,153.61 769.00,153.14 C769.00,150.73 752.58,117.02 751.79,117.81 C750.73,118.87 736.00,151.79 736.00,153.10 ZM 1680.64 446.96 C1681.98,450.16 1682.22,450.32 1683.18,448.63 C1683.93,447.30 1683.90,443.22 1683.10,434.74 C1680.64,408.91 1673.00,386.34 1673.00,404.93 C1673.00,417.30 1676.68,437.54 1680.64,446.96 ZM 1427.56 416.78 C1428.41,418.00 1429.90,419.00 1430.87,419.00 C1432.62,419.00 1438.00,414.14 1438.00,412.56 C1438.00,412.10 1436.20,409.77 1434.00,407.38 C1431.80,405.00 1430.00,402.32 1430.00,401.44 C1430.00,400.56 1429.45,400.02 1428.78,400.24 C1425.96,401.18 1425.07,413.23 1427.56,416.78 ZM 1168.69 371.83 C1167.41,373.02 1166.18,373.96 1165.94,373.92 C1160.77,372.99 1162.65,365.00 1168.04,365.00 C1170.47,365.00 1171.00,365.41 1171.00,367.33 C1171.00,368.60 1169.96,370.63 1168.69,371.83 ZM 971.46 373.38 L 971.40 373.40 C970.21,373.86 969.75,374.03 969.40,373.91 C969.17,373.84 968.98,373.65 968.67,373.33 C967.56,372.23 967.92,367.48 969.20,366.20 C970.64,364.76 974.64,364.61 975.48,365.97 C976.31,367.31 973.43,372.62 971.46,373.38 ZM 1438.57 402.79 C1440.97,406.22 1442.28,404.42 1441.78,398.37 C1441.29,392.40 1440.79,391.48 1438.54,392.35 C1436.48,393.13 1436.50,399.84 1438.57,402.79 ZM 1551.61 423.42 C1552.32,425.27 1554.57,425.51 1555.60,423.84 C1556.39,422.56 1556.34,416.01 1555.53,415.20 C1555.25,414.91 1554.11,415.50 1553.01,416.49 C1550.97,418.34 1550.51,420.57 1551.61,423.42 ZM 1586.00 392.49 C1586.00,393.53 1591.18,392.95 1594.60,391.52 C1598.34,389.96 1598.39,388.00 1594.69,388.00 C1592.60,388.01 1586.00,391.41 1586.00,392.49 ZM 886.00 392.49 C886.00,393.53 891.18,392.95 894.60,391.52 C898.34,389.96 898.39,388.00 894.69,388.00 C892.60,388.01 886.00,391.41 886.00,392.49 ZM 1002.00 392.03 C1002.00,393.44 1005.54,393.22 1009.53,391.55 C1013.60,389.85 1014.08,388.00 1010.45,388.00 C1007.48,388.00 1002.00,390.61 1002.00,392.03 ZM 1095.00 392.03 C1095.00,393.45 1098.55,393.22 1102.60,391.52 C1106.25,390.00 1106.41,388.00 1102.89,388.00 C1100.37,388.00 1095.00,390.74 1095.00,392.03 Z" fill="rgb(7,7,9)"/>
<path d="M 310.84 459.80 C302.83,462.24 299.67,461.96 292.20,458.12 C286.29,455.08 282.79,449.13 279.64,436.75 C278.20,431.11 275.64,421.33 273.95,415.00 C270.04,400.42 261.80,368.76 258.28,354.75 L 255.57 344.00 L 220.68 344.00 C177.74,344.00 174.76,343.47 164.66,334.07 C160.09,329.81 156.56,323.25 154.28,314.73 C152.92,309.69 152.59,303.55 152.56,282.50 C152.51,259.40 152.75,255.39 154.69,246.50 C157.81,232.17 163.56,213.82 167.14,206.72 C171.47,198.14 179.65,189.89 187.29,186.40 C195.79,182.51 207.77,181.82 213.76,184.88 C216.57,186.31 224.66,194.65 240.06,211.97 C252.29,225.74 262.34,237.00 262.40,236.99 C262.45,236.99 275.10,233.84 290.50,229.99 C305.97,226.13 320.68,223.00 323.37,223.00 C327.69,223.00 328.67,223.44 332.12,226.88 C335.64,230.41 336.00,231.25 336.00,236.01 C336.00,241.78 333.41,247.18 329.68,249.17 C328.50,249.80 324.38,251.14 320.52,252.14 C314.57,253.69 309.35,253.97 286.32,253.98 L 259.14 254.00 L 250.69 244.75 C246.04,239.66 235.13,227.68 226.44,218.12 C210.22,200.28 207.28,198.00 200.50,198.00 C196.48,198.00 190.51,200.23 187.68,202.79 C182.39,207.58 180.50,217.19 183.65,223.30 C184.56,225.06 192.93,234.96 202.24,245.30 L 219.18 264.10 L 218.12 274.30 C217.54,279.91 216.77,287.76 216.43,291.75 L 215.80 299.00 L 246.43 299.00 C279.25,299.00 281.47,299.29 286.83,304.30 C292.67,309.74 292.42,308.92 313.35,390.00 C315.84,399.62 319.48,413.41 321.44,420.64 C325.43,435.38 325.87,442.50 323.14,448.51 C320.95,453.33 315.41,458.41 310.84,459.80 ZM 460.00 442.05 L 460.00 457.00 L 333.00 457.00 L 333.00 442.00 L 395.00 442.00 L 395.00 310.02 L 300.50 309.50 L 300.21 301.75 L 299.92 294.00 L 460.08 294.00 L 459.79 301.75 L 459.50 309.50 L 441.24 309.77 L 422.99 310.05 L 423.24 375.77 L 423.50 441.50 ZM 137.02 457.49 C135.41,458.32 133.29,459.00 132.30,459.00 C129.25,458.99 124.41,455.40 123.06,452.14 C121.49,448.34 122.21,445.09 125.50,441.18 C126.87,439.55 128.00,437.05 128.00,435.64 C128.00,435.54 128.00,435.44 128.00,435.35 C127.99,435.06 127.99,434.80 128.04,434.56 C128.46,432.71 132.28,431.63 165.00,421.71 L 179.50 417.32 L 179.77 398.66 L 180.04 380.00 L 176.57 380.00 C174.66,380.00 172.74,379.38 172.30,378.62 C171.81,377.78 167.42,376.59 161.10,375.60 C147.49,373.46 137.98,370.51 132.21,366.63 L 127.54 363.50 L 118.97 341.00 C96.94,283.20 88.91,260.87 89.49,259.03 C89.83,257.97 91.01,256.81 92.12,256.46 C93.42,256.05 93.93,255.27 93.56,254.28 C92.09,250.45 90.00,235.02 90.02,228.12 C90.07,213.10 95.74,207.39 101.82,216.25 C114.94,235.36 138.00,298.68 138.00,315.60 C138.00,323.61 132.85,322.88 123.22,313.48 C119.59,309.94 116.47,307.19 116.29,307.38 C115.98,307.69 118.73,315.24 128.21,340.00 C130.42,345.77 132.58,351.42 133.02,352.55 C133.79,354.57 134.00,354.58 143.65,353.22 C158.08,351.19 210.97,351.23 225.53,353.29 C238.56,355.13 242.00,356.43 242.00,359.54 C242.00,365.95 227.61,372.64 207.32,375.68 C199.49,376.85 196.00,377.77 196.00,378.68 C196.00,379.52 194.73,380.00 192.50,380.00 L 189.00 380.00 L 189.00 416.76 L 191.75 417.82 C194.31,418.82 200.31,420.68 228.50,429.27 C238.98,432.46 239.52,432.76 239.84,435.53 C240.02,437.13 241.49,439.93 243.09,441.75 C247.83,447.15 246.19,455.43 239.88,458.05 C230.61,461.89 221.92,450.00 228.38,442.32 L 230.77 439.49 L 210.63 433.24 C199.56,429.80 190.16,426.99 189.75,427.00 C189.34,427.00 189.00,429.75 189.00,433.11 C189.00,438.16 189.43,439.72 191.50,442.18 C194.17,445.36 194.82,450.60 192.97,454.06 C191.37,457.04 186.24,459.27 182.54,458.57 C174.68,457.10 171.63,447.12 177.25,441.26 C179.59,438.82 180.00,437.55 180.00,432.70 C180.00,429.56 179.66,427.00 179.25,427.00 C178.84,426.99 169.44,429.80 158.37,433.24 L 138.24 439.49 L 140.12 441.88 C142.19,444.51 142.64,450.94 140.97,454.06 C140.40,455.11 138.63,456.66 137.02,457.49 ZM 495.53 130.40 C498.42,134.81 496.74,133.29 491.50,126.75 C470.70,100.77 437.21,74.55 405.50,59.41 C390.44,52.22 366.87,44.10 352.50,41.16 C313.47,33.15 272.35,33.82 235.72,43.05 C218.84,47.30 198.56,55.03 183.23,63.04 C157.75,76.36 139.67,89.96 117.69,112.34 C106.43,123.82 102.67,127.09 102.01,126.01 C101.02,124.41 101.69,122.69 103.00,123.50 C103.47,123.79 104.19,123.51 104.59,122.86 C105.04,122.13 104.88,121.96 104.15,122.40 C103.52,122.80 103.00,122.61 103.00,122.00 C103.00,121.39 102.59,121.14 102.08,121.45 C101.57,121.76 100.46,121.32 99.61,120.47 C98.22,119.07 97.94,119.12 96.79,120.96 C96.09,122.08 95.00,123.00 94.37,123.00 C93.74,123.00 91.97,123.65 90.44,124.45 C88.90,125.25 87.27,125.67 86.81,125.38 C84.38,123.88 117.41,89.01 133.00,76.61 C164.05,51.93 208.35,31.36 245.00,24.62 C265.98,20.75 281.33,19.67 306.27,20.31 C337.84,21.11 354.37,23.83 381.00,32.62 C417.44,44.65 450.68,64.42 479.13,91.00 C494.71,105.54 513.43,128.00 509.98,128.00 C509.44,128.00 509.00,127.52 509.00,126.94 C509.00,126.36 508.48,126.20 507.85,126.60 C507.10,127.05 506.96,126.87 507.45,126.08 C507.90,125.36 507.43,124.16 506.32,123.17 C504.29,121.39 501.51,120.40 502.36,121.77 C502.64,122.23 502.50,123.19 502.05,123.93 C500.97,125.66 498.69,124.25 499.44,122.31 C500.36,119.89 499.06,118.89 496.69,120.21 C495.49,120.88 494.13,121.32 493.68,121.19 C493.22,121.06 493.12,121.38 493.44,121.91 C493.77,122.43 493.58,123.14 493.02,123.49 C492.46,123.84 492.00,124.60 492.00,125.18 C492.00,125.88 492.49,125.84 493.42,125.07 C494.58,124.10 494.75,124.24 494.33,125.84 C494.05,126.92 494.59,128.97 495.53,130.40 ZM 247.50 179.64 C219.95,187.00 192.00,159.05 199.36,131.50 C202.55,119.56 210.02,110.27 220.77,104.88 C227.19,101.65 228.00,101.50 238.50,101.50 C248.45,101.50 250.03,101.76 255.04,104.22 C269.63,111.40 278.00,124.61 278.00,140.50 C278.00,159.28 265.98,174.70 247.50,179.64 ZM 334.62 284.44 C331.95,286.43 330.53,286.51 290.68,286.72 C255.53,286.91 248.97,286.72 245.85,285.40 C243.23,284.30 234.89,275.79 216.35,255.31 C202.13,239.61 189.49,225.13 188.26,223.13 C186.85,220.85 186.01,217.90 186.01,215.21 C186.00,211.63 186.62,210.26 189.79,206.86 C192.90,203.52 194.41,202.71 198.27,202.27 C200.93,201.97 204.23,202.27 205.88,202.95 C207.57,203.65 218.97,215.43 233.09,231.08 L 257.39 258.00 L 293.95 258.00 C334.73,258.00 335.48,258.12 339.37,264.86 C343.28,271.63 341.40,279.37 334.62,284.44 ZM 404.33 285.53 C403.10,286.76 397.75,287.00 371.43,287.00 C342.36,287.00 337.60,286.60 341.04,284.47 C341.62,284.12 342.79,282.08 343.64,279.93 L 345.20 276.03 L 371.72 275.77 L 398.23 275.50 L 409.48 255.00 C422.53,231.21 437.99,203.30 439.65,200.52 C440.78,198.64 440.88,198.64 444.95,200.48 C447.23,201.51 449.31,202.70 449.58,203.12 C449.84,203.55 445.62,211.91 440.20,221.70 C434.78,231.49 424.82,249.53 418.07,261.78 C411.32,274.03 405.14,284.72 404.33,285.53 Z" fill="rgb(38,49,107)"/>
<path d="M 495.53 130.40 C494.59,128.97 494.05,126.92 494.33,125.84 C494.75,124.24 494.58,124.10 493.42,125.07 C492.49,125.84 492.00,125.88 492.00,125.18 C492.00,124.60 492.46,123.84 493.02,123.49 C493.58,123.14 493.77,122.43 493.44,121.91 C493.12,121.38 493.22,121.06 493.68,121.19 C494.13,121.32 495.49,120.88 496.69,120.21 C499.06,118.89 500.36,119.89 499.44,122.31 C498.69,124.25 500.97,125.66 502.05,123.93 C502.50,123.19 502.64,122.23 502.36,121.77 C501.51,120.40 504.29,121.39 506.32,123.17 C507.43,124.16 507.90,125.36 507.45,126.08 C506.96,126.87 507.10,127.05 507.85,126.60 C508.48,126.20 509.00,126.36 509.00,126.94 C509.00,127.52 509.44,128.00 509.98,128.00 C511.55,128.00 508.52,123.34 503.29,116.89 C508.88,123.63 514.06,130.53 518.74,137.50 C540.33,169.68 554.16,206.10 560.69,248.00 C562.93,262.35 563.23,304.73 561.19,318.00 C557.78,340.18 553.86,356.72 548.30,372.40 C538.57,399.88 527.60,420.26 509.51,444.50 C481.16,482.47 441.80,513.06 399.00,530.36 C377.61,539.01 367.85,541.77 340.00,547.10 C330.28,548.96 324.48,549.34 302.50,549.53 L 302.27 549.53 C284.70,549.69 277.88,549.75 271.13,549.11 C266.82,548.71 262.54,548.02 255.50,546.90 C199.56,537.95 150.83,512.98 110.46,472.56 C95.78,457.87 86.61,446.89 76.81,432.31 C54.60,399.26 39.42,358.68 34.45,319.12 C32.31,302.01 32.87,257.14 35.43,241.50 C43.08,194.81 63.82,150.24 94.62,114.30 C105.84,101.21 116.86,90.12 128.51,80.37 C111.87,94.89 84.59,124.01 86.81,125.38 C87.27,125.67 88.90,125.25 90.44,124.45 C91.97,123.65 93.74,123.00 94.37,123.00 C95.00,123.00 96.09,122.08 96.79,120.96 C97.94,119.12 98.22,119.07 99.61,120.47 C100.46,121.32 101.57,121.76 102.08,121.45 C102.59,121.14 103.00,121.39 103.00,122.00 C103.00,122.61 103.52,122.80 104.15,122.40 C104.88,121.96 105.04,122.13 104.59,122.86 C104.19,123.51 103.47,123.79 103.00,123.50 C101.69,122.69 101.02,124.41 102.01,126.01 C102.60,126.97 105.65,124.48 114.28,115.80 C105.19,125.61 96.81,136.20 89.22,147.49 C74.61,169.22 59.49,204.52 54.04,229.60 C46.38,264.88 46.62,308.61 54.65,341.84 C66.39,390.46 89.31,430.14 125.87,465.17 C165.02,502.68 212.91,525.50 267.00,532.43 C279.91,534.08 309.70,534.36 322.79,532.95 C344.08,530.66 371.08,524.24 388.43,517.36 C409.13,509.14 437.98,492.45 453.29,479.82 C507.05,435.51 538.63,377.43 546.04,309.26 C547.56,295.21 546.79,262.25 544.61,248.71 C537.88,206.86 522.89,169.98 500.00,139.00 C496.14,133.77 491.88,127.85 490.53,125.82 C490.09,125.17 489.59,124.48 489.05,123.75 C489.88,124.75 490.70,125.75 491.50,126.75 C496.74,133.29 498.42,134.81 495.53,130.40 ZM 1117.73 195.75 L 1114.95 193.50 L 1115.23 152.00 L 1115.50 110.50 L 1134.16 110.23 C1149.78,110.00 1153.06,110.20 1154.34,111.48 C1155.17,112.32 1156.11,113.00 1156.43,113.00 C1156.74,113.00 1157.00,107.82 1157.00,101.50 C1157.00,94.50 1156.63,90.60 1155.92,89.99 C1156.54,90.16 1157.00,91.79 1157.00,94.50 C1157.00,97.87 1157.38,99.00 1158.53,99.00 C1159.37,99.00 1160.32,98.32 1160.64,97.50 C1162.18,93.47 1163.00,97.11 1163.00,108.00 C1163.00,114.60 1162.71,120.00 1162.36,120.00 C1162.01,120.00 1161.22,119.36 1160.61,118.57 C1159.21,116.77 1158.94,116.75 1138.25,116.88 L 1121.00 117.00 L 1121.00 158.07 C1121.00,199.38 1121.29,203.00 1124.59,203.00 C1125.43,203.00 1125.84,203.45 1125.50,204.00 C1124.85,205.06 1097.00,205.46 1097.00,204.41 C1097.00,204.09 1097.97,203.03 1099.16,202.07 C1102.30,199.53 1100.64,198.01 1094.69,197.96 C1089.75,197.92 1089.62,197.86 1092.00,196.56 L 1094.50 195.20 L 1093.96 116.50 L 1077.93 116.80 C1065.04,117.04 1061.79,117.38 1061.34,118.55 C1060.22,121.47 1059.00,119.88 1059.00,115.50 C1059.00,112.13 1058.62,111.00 1057.47,111.00 C1056.98,111.00 1056.45,111.23 1056.03,111.58 C1057.33,110.10 1059.67,110.00 1076.06,110.00 L 1095.00 110.00 L 1095.00 194.94 L 1092.25 196.43 C1089.71,197.81 1090.69,197.92 1105.00,197.96 L 1120.50 197.99 ZM 1286.49 197.53 C1315.54,190.45 1332.41,164.21 1326.94,134.62 C1325.04,124.34 1320.62,115.68 1313.91,108.86 C1317.28,112.06 1320.56,115.82 1323.89,120.24 C1335.10,135.09 1336.99,159.55 1328.26,176.93 C1321.64,190.12 1308.29,200.04 1291.89,203.98 C1277.55,207.41 1259.83,206.37 1247.16,201.35 C1237.36,197.47 1231.38,193.12 1223.09,183.84 C1221.86,182.46 1220.71,181.09 1219.63,179.71 C1230.97,192.80 1249.33,200.58 1271.00,199.47 C1276.22,199.21 1283.19,198.33 1286.49,197.53 ZM 1622.94 172.98 C1622.32,172.48 1621.70,171.94 1621.07,171.37 C1612.03,163.24 1608.35,151.04 1610.96,137.80 C1612.48,130.06 1614.02,127.02 1619.30,121.29 C1627.61,112.27 1639.89,108.38 1657.25,109.26 C1672.89,110.05 1688.19,115.95 1689.65,121.75 C1689.96,122.99 1690.57,124.00 1691.00,124.00 C1691.70,124.00 1702.01,108.37 1704.47,103.80 C1702.88,107.72 1703.39,108.50 1707.31,108.38 C1710.43,108.28 1711.00,108.55 1710.49,109.88 C1709.59,112.24 1697.59,131.00 1697.00,130.98 C1696.73,130.97 1695.82,129.50 1695.00,127.73 C1694.04,125.67 1692.78,124.50 1691.50,124.50 C1690.40,124.50 1689.59,123.99 1689.71,123.37 C1689.99,121.83 1680.68,118.40 1670.77,116.39 C1658.61,113.93 1646.83,115.23 1635.00,120.33 C1628.99,122.93 1623.28,128.69 1619.88,135.60 C1616.99,141.45 1616.66,143.05 1616.61,151.31 C1616.53,162.62 1618.19,168.57 1622.94,172.98 ZM 1022.93 182.89 L 1019.97 177.00 L 973.36 177.00 L 968.00 188.59 C963.50,198.33 962.83,200.49 963.82,202.08 C964.47,203.12 965.00,204.20 965.00,204.49 C965.00,204.77 952.17,205.00 936.50,205.00 C920.83,205.00 908.00,204.64 908.00,204.20 C908.00,203.76 908.52,202.88 909.16,202.24 C910.92,200.48 908.35,198.00 904.76,198.00 C902.16,198.00 901.93,197.79 903.04,196.46 C901.89,197.84 904.69,198.00 930.38,198.00 C948.79,198.00 959.00,197.64 959.00,197.00 C959.00,196.45 958.55,196.00 958.00,196.00 C955.98,196.00 957.11,192.02 962.08,181.63 L 967.15 171.00 L 1016.98 171.00 L 1021.86 180.75 C1022.24,181.50 1022.59,182.22 1022.93,182.89 ZM 661.76 197.04 C682.49,191.98 693.00,181.36 693.00,165.48 C693.00,157.67 691.45,152.06 687.99,147.58 C689.34,148.98 690.64,150.28 691.33,150.89 C692.33,151.77 694.36,154.52 695.83,157.00 C698.25,161.08 698.50,162.45 698.50,171.57 C698.50,180.76 698.27,181.99 695.89,185.57 C690.07,194.35 680.61,200.50 668.09,203.67 C664.97,204.46 655.44,205.27 646.50,205.51 C627.22,206.04 617.21,204.51 605.50,199.27 C601.10,197.31 596.26,195.70 594.75,195.70 C591.67,195.71 591.60,195.61 592.98,193.04 C593.54,191.99 593.41,191.01 592.80,190.29 C594.45,190.82 596.33,191.53 598.21,192.33 C605.64,195.50 616.14,198.17 626.00,199.39 C633.63,200.33 653.69,199.02 661.76,197.04 ZM 1364.19 195.96 C1362.07,193.99 1362.00,193.22 1362.00,173.46 L 1362.00 153.00 L 1384.88 153.00 C1403.99,153.00 1407.96,153.25 1409.00,154.50 C1409.68,155.32 1410.64,156.00 1411.12,156.00 C1411.61,156.00 1412.00,150.60 1412.00,144.00 C1412.00,138.91 1411.80,134.54 1411.51,132.80 C1411.81,133.64 1412.00,135.07 1412.00,137.00 C1412.00,140.82 1412.36,142.00 1413.53,142.00 C1414.37,142.00 1415.32,141.32 1415.64,140.50 C1415.95,139.68 1416.62,139.00 1417.11,139.00 C1418.08,139.00 1418.37,161.29 1417.42,162.25 C1417.10,162.57 1415.96,161.96 1414.90,160.90 C1413.08,159.08 1411.58,158.98 1390.73,159.23 L 1368.50 159.50 L 1368.23 179.73 C1367.97,198.89 1368.07,200.07 1369.98,201.98 C1371.09,203.09 1372.00,204.23 1372.00,204.50 C1372.00,204.77 1365.70,205.00 1358.00,205.00 C1350.30,205.00 1344.00,204.73 1344.00,204.41 C1344.00,204.09 1344.97,203.03 1346.16,202.07 C1349.21,199.60 1347.68,198.01 1342.19,197.95 C1337.63,197.90 1337.56,197.85 1339.75,196.33 C1337.66,197.78 1338.52,197.90 1351.94,197.95 L 1366.38 198.00 ZM 1469.00 197.11 C1469.00,196.62 1468.32,195.95 1467.50,195.64 C1466.23,195.15 1466.00,191.80 1466.00,174.03 L 1466.00 153.00 L 1489.03 153.00 C1508.58,153.00 1512.15,153.23 1512.64,154.50 C1514.18,158.53 1515.00,154.89 1515.00,144.00 C1515.00,136.67 1514.61,132.00 1514.00,132.00 C1514.55,132.00 1515.00,134.25 1515.00,137.00 C1515.00,142.36 1516.03,143.19 1519.17,140.35 C1520.93,138.75 1521.00,139.14 1520.97,151.10 C1520.94,162.38 1520.80,163.32 1519.43,161.50 C1518.01,159.62 1516.56,159.48 1494.96,159.20 L 1472.00 158.90 L 1472.00 180.38 C1472.00,201.04 1472.08,201.89 1474.01,202.50 C1475.12,202.86 1475.77,203.56 1475.46,204.07 C1474.67,205.34 1448.29,205.27 1447.50,204.00 C1447.16,203.45 1447.57,203.00 1448.41,203.00 C1450.08,203.00 1452.31,199.64 1451.30,198.63 C1450.95,198.28 1448.39,198.00 1445.61,198.00 C1440.75,198.00 1440.64,197.94 1442.78,196.44 C1440.72,197.88 1441.62,198.00 1454.78,198.00 C1462.60,198.00 1469.00,197.60 1469.00,197.11 ZM 1512.95 133.76 C1512.77,134.43 1512.15,135.11 1511.42,135.39 C1510.55,135.73 1499.97,136.00 1487.92,136.00 L 1466.00 136.00 L 1466.00 110.00 L 1534.76 110.00 L 1536.33 112.25 C1537.79,114.35 1537.90,113.68 1537.95,102.25 C1537.98,94.16 1537.57,89.99 1536.74,89.90 C1538.03,88.51 1539.00,90.32 1539.00,94.56 C1539.00,97.88 1539.39,99.00 1540.53,99.00 C1541.37,99.00 1542.32,98.33 1542.64,97.51 C1542.95,96.68 1543.61,96.26 1544.10,96.56 C1545.11,97.19 1545.36,120.00 1544.36,120.00 C1544.01,120.00 1543.22,119.36 1542.61,118.57 C1542.45,118.37 1542.32,118.18 1542.17,118.02 C1541.00,116.76 1538.45,116.76 1508.18,116.87 L 1504.75 116.88 L 1472.00 117.00 L 1472.00 135.00 L 1492.50 135.00 C1508.78,135.00 1512.49,134.81 1512.95,133.76 ZM 1793.26 133.95 L 1793.22 134.02 C1792.01,135.96 1791.10,136.03 1767.91,135.77 L 1743.86 135.50 L 1743.86 110.50 L 1779.85 110.24 C1810.87,110.01 1816.04,110.18 1817.34,111.49 C1818.18,112.32 1819.11,113.00 1819.43,113.00 C1819.74,113.00 1820.00,107.82 1820.00,101.50 C1820.00,94.50 1819.63,90.60 1818.92,89.99 C1819.54,90.16 1820.00,91.79 1820.00,94.50 C1820.00,97.87 1820.38,99.00 1821.53,99.00 C1822.37,99.00 1823.32,98.32 1823.64,97.50 C1825.18,93.47 1826.00,97.11 1826.00,108.00 C1826.00,118.91 1825.18,122.53 1823.63,118.49 C1823.13,117.17 1818.34,117.01 1786.28,117.24 L 1749.50 117.50 L 1749.14 135.00 L 1771.10 135.00 C1787.25,135.00 1791.98,134.83 1793.26,133.95 ZM 1575.56 196.47 C1574.49,195.66 1573.25,195.00 1572.81,195.00 C1572.36,195.00 1572.00,172.94 1572.00,145.98 L 1572.00 98.40 C1572.39,99.19 1574.17,99.76 1577.19,99.87 C1583.36,100.09 1584.20,100.59 1580.63,101.95 L 1577.98 102.96 L 1578.24 152.23 L 1578.50 201.50 L 1580.75 202.49 C1581.99,203.03 1583.00,203.82 1583.00,204.24 C1583.00,205.40 1553.22,205.17 1552.50,204.00 C1552.16,203.45 1552.55,203.00 1553.37,203.00 C1554.19,203.00 1555.60,202.26 1556.50,201.35 C1558.77,199.09 1556.92,198.05 1550.50,197.98 L 1545.50 197.92 L 1548.25 196.43 C1545.72,197.80 1546.75,197.92 1561.50,197.93 C1575.78,197.94 1577.29,197.78 1575.56,196.47 ZM 1821.00 189.50 C1821.00,183.18 1820.78,178.00 1820.50,178.00 C1820.22,178.00 1819.10,178.90 1818.00,180.00 C1817.49,180.51 1817.01,180.89 1815.97,181.18 L 1817.52 179.37 C1820.57,175.83 1821.99,177.08 1822.03,183.31 L 1822.07 188.50 L 1824.06 186.11 C1825.15,184.79 1826.28,183.95 1826.56,184.22 C1826.84,184.50 1826.94,190.04 1826.78,196.52 C1826.54,206.68 1826.31,208.09 1825.13,206.66 C1823.88,205.16 1819.17,205.00 1774.94,205.00 C1743.47,205.00 1725.90,204.64 1725.50,204.00 C1725.16,203.45 1725.60,203.00 1726.47,203.00 C1728.61,203.00 1729.65,200.02 1727.90,198.91 C1727.13,198.43 1724.71,198.02 1722.53,198.02 C1718.65,198.00 1718.61,197.96 1720.78,196.44 C1718.75,197.86 1722.94,198.00 1767.74,198.00 C1809.63,198.00 1817.11,198.22 1818.21,199.46 C1818.92,200.27 1819.84,200.94 1820.25,200.96 C1820.66,200.98 1821.00,195.82 1821.00,189.50 ZM 1409.26 133.96 L 1409.22 134.02 C1408.01,135.96 1407.10,136.03 1385.23,135.77 L 1362.50 135.50 L 1361.94 110.00 L 1396.43 110.00 C1430.62,110.00 1430.94,110.02 1432.96,112.19 L 1435.00 114.38 L 1435.00 102.19 C1435.00,94.70 1434.63,90.60 1433.91,89.99 C1434.53,90.14 1435.00,91.77 1435.00,94.50 C1435.00,99.35 1436.11,100.11 1439.17,97.35 C1440.93,95.75 1441.00,96.13 1441.00,107.85 C1441.00,114.53 1440.71,120.00 1440.36,120.00 C1440.01,120.00 1439.22,119.36 1438.61,118.58 C1437.19,116.76 1435.62,116.69 1398.75,116.86 L 1368.00 117.00 L 1368.00 135.00 L 1388.53 135.00 C1403.51,135.00 1408.00,134.83 1409.26,133.96 ZM 1676.15 197.09 C1684.24,195.02 1691.77,191.60 1698.67,186.87 C1700.97,185.30 1704.03,183.56 1705.48,183.01 C1707.28,182.32 1707.85,181.60 1707.30,180.69 C1703.79,174.93 1695.58,163.47 1694.06,162.13 C1694.69,162.23 1695.59,163.19 1696.66,165.00 C1697.63,166.65 1698.77,168.00 1699.19,168.00 C1699.60,168.00 1702.18,171.26 1704.93,175.25 C1707.67,179.24 1710.82,183.62 1711.93,185.00 C1714.38,188.02 1714.50,189.00 1712.45,189.00 C1711.59,189.00 1708.33,190.74 1705.20,192.86 C1697.54,198.05 1692.82,200.36 1684.50,202.99 C1679.01,204.72 1674.47,205.28 1663.50,205.55 C1644.32,206.02 1634.86,204.07 1621.50,196.89 C1615.42,193.62 1606.94,185.59 1600.99,177.96 C1607.22,185.56 1615.78,191.64 1625.68,195.09 C1640.26,200.16 1660.94,200.98 1676.15,197.09 ZM 1244.56 176.53 C1238.88,172.94 1234.36,168.07 1231.46,162.29 C1228.80,157.01 1228.55,155.57 1228.52,146.00 C1228.50,136.75 1228.81,134.84 1231.10,129.95 C1238.08,115.07 1250.98,108.35 1270.95,109.18 C1282.28,109.66 1289.14,112.33 1296.51,119.12 C1299.96,122.30 1302.33,125.26 1303.93,128.71 C1300.95,122.48 1295.34,119.10 1285.47,116.53 C1265.71,111.39 1245.40,119.53 1237.38,135.80 C1234.82,140.98 1234.56,142.50 1234.53,152.50 C1234.50,162.88 1234.67,163.80 1237.50,168.91 C1239.15,171.88 1241.51,174.43 1244.56,176.53 ZM 616.17 132.56 C612.47,131.61 610.58,130.29 609.34,128.39 C605.81,123.02 610.98,114.78 620.00,111.40 C623.03,110.27 628.78,109.56 637.59,109.25 C648.68,108.85 651.97,109.10 659.09,110.90 C668.33,113.24 675.96,117.33 677.49,120.78 C678.03,122.01 678.93,122.87 679.49,122.70 C680.04,122.53 682.82,117.82 685.65,112.23 L 690.49 102.69 C690.51,102.99 690.30,103.44 689.94,104.11 C688.22,107.32 689.53,109.34 692.90,108.67 C694.47,108.36 696.00,108.33 696.29,108.62 C697.01,109.35 686.42,129.36 685.07,129.81 C684.48,130.01 684.00,129.33 684.00,128.31 C684.00,126.17 681.22,123.50 679.00,123.50 C678.17,123.50 677.59,123.01 677.69,122.42 C678.00,120.72 659.36,115.80 650.52,115.25 C631.01,114.05 616.74,119.54 614.47,129.13 C613.99,131.12 614.19,131.75 616.17,132.56 ZM 720.00 197.00 C720.00,196.45 719.55,196.00 719.00,196.00 C716.98,196.00 718.11,192.02 723.09,181.61 L 728.17 170.97 L 753.25 171.23 L 778.34 171.50 L 781.14 177.08 L 757.93 177.04 L 734.36 177.00 L 729.00 188.59 C724.50,198.33 723.83,200.49 724.82,202.08 C725.47,203.12 726.00,204.20 726.00,204.49 C726.00,204.77 720.15,205.00 713.00,205.00 C705.00,205.00 700.00,204.62 700.00,204.00 C700.00,203.45 700.42,203.00 700.93,203.00 C702.42,203.00 705.07,199.93 704.45,198.92 C704.14,198.41 701.55,198.00 698.69,198.00 L 693.50 197.99 L 706.75 198.00 C714.92,198.00 720.00,197.62 720.00,197.00 ZM 849.00 197.24 C849.00,196.82 848.09,195.91 846.98,195.22 C845.05,194.01 844.97,193.10 845.23,173.85 L 845.50 153.73 L 860.49 153.79 L 875.47 153.85 L 881.99 162.79 C882.24,163.13 882.50,163.49 882.78,163.88 L 879.94 160.00 L 852.08 160.00 L 851.79 179.57 C851.49,199.88 851.85,203.00 854.53,203.00 C855.40,203.00 855.84,203.45 855.50,204.00 C854.85,205.06 827.00,205.46 827.00,204.41 C827.00,204.09 827.97,203.03 829.16,202.07 C832.22,199.60 830.67,198.00 825.22,198.00 C820.71,198.00 820.63,197.95 822.78,196.44 C820.72,197.88 821.62,198.00 834.78,198.00 C842.60,198.00 849.00,197.66 849.00,197.24 ZM 1756.75 181.78 C1750.78,181.67 1746.84,181.53 1746.25,181.37 C1744.05,180.78 1744.00,180.44 1744.00,166.88 L 1744.00 153.00 L 1767.93 153.00 C1787.87,153.00 1792.11,153.25 1793.36,154.50 C1794.18,155.32 1795.11,156.00 1795.43,156.00 C1795.74,156.00 1796.00,150.60 1796.00,144.00 C1796.00,138.91 1795.80,134.54 1795.51,132.80 C1795.81,133.64 1796.00,135.07 1796.00,137.00 C1796.00,140.82 1796.36,142.00 1797.53,142.00 C1798.37,142.00 1799.32,141.32 1799.64,140.50 C1799.95,139.68 1800.62,139.00 1801.11,139.00 C1802.08,139.00 1802.37,161.29 1801.42,162.25 C1801.10,162.57 1799.97,161.97 1798.92,160.92 C1797.14,159.14 1795.33,159.00 1773.61,159.00 C1753.20,159.00 1750.14,159.20 1749.61,160.58 C1749.27,161.45 1749.00,165.91 1749.00,170.50 C1749.00,175.09 1749.27,179.55 1749.61,180.42 C1749.90,181.17 1751.15,181.57 1756.75,181.78 ZM 846.67 136.33 C846.30,135.97 846.00,129.86 846.00,122.76 L 846.00 109.85 L 872.25 110.18 C901.72,110.54 903.70,110.95 907.29,118.20 C905.09,117.78 893.26,117.35 879.42,117.19 L 852.00 116.88 L 852.00 136.82 C848.90,136.71 846.89,136.55 846.67,136.33 ZM 1005.78 98.92 C1006.63,99.56 1008.10,100.00 1009.97,100.00 C1014.30,100.00 1014.92,100.61 1012.42,102.43 C1011.03,103.45 1011.93,105.94 1019.81,123.04 C1043.58,174.59 1056.15,200.65 1057.99,202.16 C1059.09,203.07 1060.00,204.09 1060.00,204.41 C1060.00,205.38 1032.17,205.08 1031.56,204.10 C1031.26,203.61 1031.68,202.95 1032.51,202.64 C1034.47,201.88 1034.42,199.38 1032.42,198.61 C1031.55,198.27 1029.41,197.99 1027.67,197.97 C1024.74,197.94 1024.64,197.83 1026.34,196.54 C1027.08,195.98 1027.53,195.44 1027.62,194.60 C1027.55,195.47 1027.09,195.98 1026.34,196.54 C1024.74,197.76 1026.42,197.94 1039.25,197.97 C1047.36,197.99 1054.00,197.60 1054.00,197.12 C1054.00,196.63 1053.18,196.02 1052.19,195.76 C1050.99,195.45 1047.96,190.06 1043.27,179.89 C1039.36,171.43 1029.15,149.49 1020.58,131.15 C1013.70,116.43 1007.83,103.63 1005.78,98.92 ZM 922.87 105.67 C931.71,114.66 934.19,119.45 934.76,128.50 C935.34,137.81 932.50,145.62 926.34,151.61 C922.10,155.72 913.25,160.00 908.96,160.00 C907.88,160.00 907.00,160.26 907.00,160.59 C907.00,160.91 911.22,167.09 916.37,174.34 C921.52,181.58 926.47,188.94 927.36,190.69 C927.50,190.95 927.64,191.21 927.79,191.47 C924.56,187.62 919.92,181.28 913.07,171.50 L 901.15 154.50 L 906.33 152.92 C909.17,152.05 912.91,150.60 914.64,149.70 C919.54,147.15 925.83,139.31 927.50,133.67 C930.66,123.06 928.75,113.01 922.87,105.67 ZM 787.25 196.61 C785.77,197.73 787.77,197.94 800.25,197.97 C808.73,197.99 815.00,197.60 815.00,197.07 C815.00,196.55 814.20,195.88 813.22,195.57 C812.05,195.20 805.84,183.00 795.01,159.75 C785.97,140.36 775.75,118.45 772.30,111.06 C769.26,104.53 767.72,101.07 767.16,99.05 C767.93,99.63 769.29,100.00 771.11,100.00 C775.32,100.00 775.90,100.62 773.41,102.44 C772.00,103.47 772.65,105.40 779.02,119.05 C782.98,127.55 787.58,137.43 789.24,141.00 C790.91,144.57 797.61,158.88 804.14,172.79 C810.66,186.69 816.00,198.47 816.00,198.96 C816.00,199.45 817.12,200.74 818.50,201.82 C819.88,202.90 821.00,204.06 821.00,204.39 C821.00,204.73 814.70,205.00 807.00,205.00 C799.30,205.00 793.00,204.77 793.00,204.49 C793.00,204.20 793.56,203.07 794.25,201.96 C795.84,199.39 794.06,198.05 789.00,197.98 C785.87,197.94 785.69,197.79 787.25,196.61 ZM 671.77 165.43 C670.68,162.64 665.30,161.84 646.50,160.91 C613.55,159.28 608.34,157.85 598.27,147.64 C596.99,146.33 595.85,145.10 594.84,143.92 C598.03,146.99 602.37,149.34 607.91,151.06 C613.05,152.64 619.19,153.30 635.75,154.03 C647.44,154.55 659.01,155.48 661.47,156.10 C667.43,157.60 671.06,161.26 671.77,165.43 ZM 976.37 148.75 C986.74,125.52 990.46,117.99 991.40,118.30 C991.78,118.43 994.24,123.21 997.17,129.20 C996.47,127.85 996.01,127.02 995.90,127.02 C995.16,127.00 985.26,148.12 984.40,151.55 L 983.78 154.00 L 974.03 154.00 ZM 736.00 153.10 C736.00,151.79 750.73,118.87 751.79,117.81 C752.13,117.47 755.23,123.27 758.72,130.27 C757.72,128.28 757.03,127.01 756.88,127.01 C756.21,127.00 745.00,151.62 745.00,153.10 C745.00,153.55 749.41,153.92 755.13,153.99 C754.27,154.00 753.39,154.00 752.50,154.00 C743.40,154.00 736.00,153.60 736.00,153.10 ZM 936.12 201.37 C939.10,203.46 940.31,203.42 942.35,201.17 C944.39,198.91 943.59,198.00 939.58,198.02 C934.74,198.04 933.33,199.41 936.12,201.37 ZM 421.60 49.92 C427.18,52.79 432.43,55.72 437.00,58.55 C444.67,63.29 452.30,68.66 459.74,74.51 C447.69,65.19 434.94,56.98 421.60,49.92 ZM 862.38 136.99 L 874.75 136.82 C888.54,136.63 895.30,136.41 899.39,135.19 C898.69,135.49 897.96,135.75 897.22,135.96 C894.70,136.65 876.27,137.05 862.38,136.99 ZM 1601.02 114.25 C1605.36,108.84 1610.92,104.22 1617.55,100.77 C1623.47,97.69 1628.56,95.66 1634.17,94.39 C1633.64,94.52 1633.10,94.67 1632.55,94.83 C1618.98,98.71 1608.30,105.45 1601.02,114.25 ZM 1154.64 91.50 C1154.28,92.45 1150.82,92.81 1132.85,92.94 C1145.35,92.67 1154.37,92.19 1154.64,91.50 ZM 474.74 108.36 C465.94,99.97 455.03,90.76 444.58,82.97 C455.35,90.81 465.61,99.43 474.74,108.36 ZM 1056.00 91.50 C1056.57,92.18 1065.73,92.66 1078.25,92.93 C1060.52,92.80 1056.78,92.43 1056.00,91.50 ZM 138.73 92.62 C151.22,82.04 163.66,73.64 178.55,65.53 C164.50,73.23 151.17,82.30 138.73,92.62 ZM 419.86 66.95 C410.26,61.64 399.78,56.71 389.27,52.52 C395.16,54.79 400.75,57.15 405.50,59.41 C410.26,61.69 415.07,64.21 419.86,66.95 ZM 1656.16 182.92 C1651.40,183.02 1646.55,182.55 1641.62,181.51 C1636.12,180.34 1631.92,178.86 1628.06,176.59 C1635.41,180.62 1646.23,182.96 1656.16,182.92 ZM 188.55 43.13 C203.83,36.07 218.48,30.81 233.53,27.11 C218.96,30.74 203.57,36.27 188.55,43.13 ZM 605.02 175.45 C610.06,178.64 617.21,180.87 625.00,182.05 C616.52,180.91 609.45,178.58 605.02,175.45 ZM 768.99 153.16 C768.73,151.64 762.70,138.35 759.24,131.32 C763.90,140.72 769.00,151.80 769.00,153.14 C769.00,153.15 769.00,153.16 768.99,153.16 ZM 654.62 181.25 C657.50,180.57 660.17,179.69 662.54,178.61 C666.24,176.91 669.04,174.50 670.60,171.79 C670.01,172.88 669.21,173.95 668.19,174.97 C665.29,177.87 660.80,179.95 654.62,181.25 ZM 1686.32 173.35 C1684.39,174.82 1682.16,176.20 1679.82,177.30 C1676.99,178.64 1674.10,179.74 1671.17,180.61 C1677.08,178.73 1682.41,176.13 1686.32,173.35 ZM 907.27 128.08 C908.16,125.99 908.61,123.16 908.48,121.03 C908.93,122.59 908.77,123.83 908.11,126.02 C907.90,126.72 907.62,127.41 907.27,128.08 ZM 908.38 95.92 C903.58,94.35 901.10,93.87 885.10,93.55 C901.16,93.87 903.60,94.36 908.50,95.94 C912.49,97.23 914.62,98.18 917.35,100.43 C914.75,98.54 911.74,97.01 908.38,95.92 ZM 1055.40 112.41 C1055.39,112.44 1055.37,112.47 1055.36,112.49 C1054.83,113.89 1054.36,114.17 1053.99,113.43 C1054.36,113.40 1054.89,113.02 1055.40,112.41 ZM 1053.01 103.05 C1053.00,102.53 1053.00,101.99 1053.00,101.44 C1053.00,96.38 1053.10,93.25 1053.45,91.62 C1053.16,94.00 1053.01,98.65 1053.01,103.05 ZM 785.91 186.70 C787.68,190.43 788.92,193.34 788.95,193.89 C788.95,193.93 788.95,193.98 788.94,194.03 C788.63,192.98 787.43,190.06 785.91,186.70 ZM 1590.53 154.13 C1589.77,149.37 1589.68,144.60 1590.24,139.94 C1589.74,144.48 1589.83,149.22 1590.53,154.13 ZM 1572.00 97.69 L 1572.00 96.96 L 1574.50 95.82 C1573.07,96.47 1572.25,97.11 1572.00,97.69 ZM 1007.94 94.35 C1007.99,94.73 1007.43,95.22 1006.35,95.83 C1005.62,96.23 1005.20,96.69 1005.04,97.14 C1005.01,97.07 1005.00,97.03 1005.00,97.01 C1005.00,96.57 1005.67,95.95 1006.50,95.64 C1007.18,95.38 1007.75,94.84 1007.94,94.35 ZM 1002.66 140.76 C1005.62,147.14 1008.00,152.56 1008.00,153.25 C1008.00,153.26 1008.00,153.26 1007.99,153.27 C1007.86,152.41 1005.36,146.66 1002.66,140.76 ZM 1411.05 132.05 C1410.70,132.20 1410.20,132.68 1409.72,133.30 C1410.19,132.15 1410.66,131.77 1411.05,132.05 ZM 1795.05 132.05 C1794.70,132.20 1794.20,132.68 1793.72,133.30 C1794.19,132.15 1794.66,131.77 1795.05,132.05 ZM 1299.58 98.71 C1296.03,96.98 1292.17,95.54 1288.00,94.39 C1285.03,93.57 1280.65,93.02 1275.78,92.73 C1280.65,93.01 1285.03,93.56 1288.00,94.37 C1292.18,95.52 1296.00,96.94 1299.58,98.71 ZM 767.50 96.00 L 767.52 95.98 C768.24,95.18 768.84,94.28 768.97,93.83 C768.99,93.84 769.00,93.86 769.00,93.88 C769.00,94.36 768.35,95.29 767.56,95.95 ZM 683.09 142.68 C680.46,140.59 677.56,139.11 673.52,138.03 C677.63,139.12 680.54,140.60 683.09,142.68 ZM 638.95 134.84 C633.83,134.61 629.61,134.36 626.12,134.04 C629.75,134.34 634.20,134.61 638.95,134.84 ZM 586.00 188.89 C586.00,188.88 586.00,188.88 586.00,188.87 C586.00,187.86 588.96,181.76 592.00,176.02 C588.99,181.72 586.05,187.79 586.00,188.89 ZM 1704.71 102.37 C1704.32,102.27 1703.58,102.32 1702.75,102.53 C1702.36,102.63 1701.75,102.61 1701.00,102.51 C1701.79,102.61 1702.42,102.61 1702.88,102.50 C1703.92,102.23 1704.49,102.16 1704.71,102.37 ZM 244.48 24.71 C247.42,24.14 250.39,23.63 253.39,23.18 C250.67,23.60 247.89,24.08 245.00,24.62 C244.83,24.65 244.65,24.68 244.48,24.71 ZM 688.25 102.13 L 687.65 102.14 C685.92,102.18 682.03,101.11 679.00,99.76 C682.03,101.11 685.97,102.18 687.77,102.14 C687.94,102.13 688.10,102.13 688.25,102.13 ZM 932.93 196.27 C933.50,196.45 934.04,196.49 934.50,196.35 C934.47,196.37 934.43,196.39 934.39,196.40 C933.98,196.56 933.51,196.53 932.93,196.27 ZM 1003.48 93.23 C1000.87,93.08 997.17,93.00 992.50,93.00 C997.39,93.00 1000.99,93.07 1003.48,93.23 ZM 1054.51 90.22 C1054.90,90.32 1055.39,90.77 1056.00,91.50 C1055.55,90.96 1054.98,90.48 1054.51,90.22 ZM 1535.61 91.56 C1535.49,91.77 1535.21,91.95 1534.62,92.11 C1535.10,91.96 1535.40,91.77 1535.61,91.56 ZM 898.08 185.78 C903.28,193.50 904.02,195.27 903.04,196.45 C904.02,195.26 903.26,193.47 898.08,185.78 ZM 1693.32 162.59 C1693.12,163.08 1693.00,163.83 1693.00,164.65 C1693.00,163.70 1693.11,163.01 1693.32,162.59 ZM 588.40 189.26 C588.18,189.30 587.96,189.33 587.76,189.35 C587.83,189.33 587.89,189.32 587.96,189.30 C588.07,189.27 588.22,189.26 588.40,189.26 ZM 893.55 179.15 C894.56,180.62 895.53,182.02 896.41,183.31 C897.01,184.20 897.57,185.02 898.08,185.78 C897.45,184.84 896.75,183.82 895.98,182.70 C895.19,181.54 894.37,180.35 893.55,179.15 Z" fill="rgb(174,124,209)"/>
<path d="M 0.00 280.50 L 0.00 0.00 L 935.00 0.00 L 1870.00 0.00 L 1870.00 280.50 L 1870.00 561.00 L 935.00 561.00 L 0.00 561.00 L 0.00 280.50 ZM 340.00 547.10 C367.85,541.77 377.61,539.01 399.00,530.36 C441.80,513.06 481.16,482.47 509.51,444.50 C527.60,420.26 538.57,399.88 548.30,372.40 C553.86,356.72 557.78,340.18 561.19,318.00 C563.23,304.73 562.93,262.35 560.69,248.00 C554.16,206.10 540.33,169.68 518.74,137.50 C498.25,106.96 467.99,77.73 437.00,58.55 C421.72,49.09 398.94,38.54 381.00,32.62 C354.37,23.83 337.84,21.11 306.27,20.31 C257.21,19.06 221.70,26.59 180.50,46.98 C145.83,64.13 120.80,83.76 94.62,114.30 C63.82,150.24 43.08,194.81 35.43,241.50 C32.87,257.14 32.31,302.01 34.45,319.12 C39.42,358.68 54.60,399.26 76.81,432.31 C86.61,446.89 95.78,457.87 110.46,472.56 C150.83,512.98 199.56,537.95 255.50,546.90 C273.61,549.79 273.48,549.78 302.50,549.53 C324.48,549.34 330.28,548.96 340.00,547.10 ZM 745.50 534.52 C783.31,528.36 820.84,500.82 845.04,461.47 C855.89,443.82 862.57,426.01 863.58,412.00 C864.35,401.44 864.64,400.49 867.48,399.19 C871.04,397.57 870.70,395.20 866.85,394.81 C863.32,394.46 862.86,393.86 859.94,385.76 C857.28,378.40 850.43,369.31 843.19,363.52 C825.89,349.68 787.14,338.05 758.18,338.01 C751.28,338.00 749.00,336.74 749.00,332.95 C749.00,329.64 746.79,331.26 776.13,313.05 C798.18,299.38 817.34,285.41 828.26,275.05 C838.23,265.61 842.21,260.39 844.01,254.38 C845.77,248.48 842.88,242.19 836.77,238.61 C827.71,233.30 821.50,231.80 806.31,231.26 C780.22,230.33 755.71,235.94 731.59,248.37 C710.55,259.21 694.61,277.16 701.96,281.74 C705.07,283.69 706.79,282.26 710.54,274.64 C715.20,265.15 722.35,258.68 736.03,251.57 C755.94,241.23 778.06,235.67 799.50,235.62 C810.29,235.60 813.77,235.98 819.96,237.89 C828.82,240.62 835.01,245.86 834.99,250.63 C834.96,258.53 820.51,274.03 798.73,289.50 C783.83,300.08 752.22,320.00 750.32,320.00 C749.26,320.00 749.00,314.80 749.00,293.57 C749.00,278.37 748.57,266.01 748.00,264.50 C747.16,262.30 746.48,261.92 743.75,262.19 L 740.50 262.50 L 740.00 294.33 L 739.50 326.17 L 736.27 328.83 C734.49,330.30 731.43,332.80 729.46,334.39 C723.41,339.30 725.69,342.65 735.25,342.90 C737.31,342.96 739.10,343.11 739.22,343.25 C739.34,343.39 739.68,360.10 739.97,380.38 C740.49,416.22 740.56,417.30 742.56,418.63 C744.28,419.77 744.93,419.77 746.45,418.66 C748.14,417.43 748.30,414.62 748.78,380.17 L 749.29 343.00 L 756.27 343.00 C776.86,343.00 810.92,351.76 826.60,361.08 C838.89,368.40 848.19,379.47 851.97,391.29 C853.53,396.18 852.41,397.57 846.22,398.45 C828.60,400.94 789.58,412.89 766.00,423.02 C721.53,442.13 692.95,465.42 686.35,487.92 C684.06,495.73 684.89,506.97 688.25,513.54 C693.27,523.38 705.16,531.43 719.13,534.46 C727.55,536.29 734.58,536.30 745.50,534.52 ZM 1327.47 507.09 C1339.67,502.81 1354.26,492.15 1364.71,479.88 C1371.77,471.61 1383.15,454.64 1387.70,445.61 C1406.04,409.22 1419.11,332.96 1419.41,260.66 L 1419.50 237.83 L 1417.14 235.91 C1414.42,233.71 1411.12,233.45 1408.71,235.25 C1407.54,236.12 1405.64,242.96 1402.51,257.50 C1395.25,291.26 1389.33,309.68 1378.02,333.65 C1366.65,357.75 1349.28,378.69 1335.16,385.31 C1329.59,387.93 1327.28,388.44 1320.98,388.47 C1314.48,388.50 1312.57,388.06 1306.85,385.24 C1297.11,380.45 1288.52,370.94 1282.07,357.80 C1275.97,345.36 1273.02,335.30 1269.33,314.36 C1266.80,299.94 1266.54,296.36 1266.58,275.00 C1266.60,254.13 1266.87,250.38 1268.91,241.50 C1272.62,225.35 1272.62,225.37 1269.49,224.59 C1264.83,223.42 1262.50,225.94 1260.17,234.69 C1256.57,248.19 1255.70,258.89 1256.30,282.00 C1257.16,315.32 1261.94,339.18 1271.71,359.00 C1276.61,368.93 1278.49,371.59 1285.44,378.51 C1294.45,387.47 1302.25,392.14 1312.09,394.46 C1320.20,396.37 1324.13,396.38 1331.37,394.49 C1348.69,389.98 1362.86,378.24 1377.22,356.50 C1384.64,345.27 1397.71,318.66 1402.15,305.75 C1407.54,290.08 1407.66,291.18 1404.37,326.88 C1401.91,353.61 1392.49,402.56 1388.68,408.36 C1386.90,411.08 1386.17,411.33 1369.00,414.99 C1349.03,419.25 1327.69,427.62 1313.36,436.83 C1302.62,443.72 1291.25,455.65 1286.86,464.62 C1283.80,470.88 1283.50,472.31 1283.51,480.50 C1283.51,487.81 1283.92,490.26 1285.68,493.57 C1287.91,497.74 1294.00,503.86 1298.16,506.09 C1306.24,510.43 1316.93,510.80 1327.47,507.09 ZM 1688.06 455.97 C1689.11,455.40 1690.76,453.49 1691.72,451.72 C1695.03,445.58 1693.62,424.20 1689.34,415.75 C1687.54,412.20 1688.04,412.28 1693.51,416.46 C1704.14,424.57 1715.11,421.61 1725.44,407.86 C1728.79,403.41 1729.78,401.38 1729.00,400.60 C1728.22,399.82 1726.53,401.09 1722.97,405.14 C1718.09,410.71 1712.37,414.02 1707.73,413.98 C1701.43,413.92 1690.12,405.00 1682.62,394.18 L 1679.84 390.16 L 1685.31 382.33 C1694.15,369.67 1704.37,352.27 1712.92,335.32 C1730.40,300.64 1733.86,278.18 1722.47,273.42 C1709.80,268.13 1696.31,276.44 1686.24,295.75 C1680.12,307.49 1674.32,323.99 1669.55,343.24 C1664.52,363.52 1662.97,374.89 1662.30,396.24 L 1661.72 414.99 L 1656.95 419.45 C1651.65,424.41 1648.24,425.73 1645.09,424.05 C1642.40,422.61 1638.56,414.98 1637.12,408.20 C1634.96,397.98 1635.58,393.89 1641.57,378.91 C1651.67,353.66 1657.34,325.84 1657.44,301.00 C1657.49,286.89 1657.30,285.06 1655.21,280.54 C1651.89,273.33 1650.38,272.00 1645.48,272.00 C1642.28,272.00 1640.65,272.62 1638.67,274.60 C1634.29,278.98 1629.45,294.65 1626.97,312.50 C1625.39,323.82 1624.62,378.19 1625.83,391.95 C1627.03,405.42 1628.30,403.57 1612.37,411.57 C1603.85,415.86 1599.84,417.29 1595.29,417.71 C1589.68,418.22 1589.15,418.07 1585.70,415.04 C1580.62,410.58 1579.00,403.45 1582.14,399.40 C1582.61,398.79 1586.59,398.02 1590.99,397.68 C1599.30,397.04 1603.21,395.63 1606.37,392.14 C1608.83,389.42 1607.84,385.27 1604.41,383.96 C1601.02,382.68 1590.45,382.75 1585.62,384.09 C1580.46,385.52 1572.82,393.23 1571.22,398.61 C1570.18,402.12 1569.37,402.97 1565.72,404.36 C1563.36,405.26 1561.00,405.98 1560.47,405.96 C1559.13,405.90 1552.28,396.86 1550.98,393.45 C1549.25,388.91 1550.35,387.68 1555.42,388.44 C1558.40,388.88 1560.06,388.71 1560.56,387.90 C1562.98,383.99 1549.27,382.42 1544.63,386.07 C1540.82,389.08 1541.12,393.48 1545.59,400.13 L 1549.17 405.46 L 1547.07 409.79 C1544.43,415.22 1536.32,424.00 1533.93,424.00 C1531.27,424.00 1530.84,421.25 1531.95,411.46 C1533.46,398.15 1531.96,396.31 1521.00,398.09 C1518.27,398.54 1518.25,398.42 1519.59,389.25 L 1520.21 385.00 L 1516.16 385.00 C1511.04,385.00 1509.00,387.60 1509.00,394.15 C1509.00,398.04 1509.46,399.21 1511.63,400.93 C1513.08,402.07 1515.13,403.00 1516.18,403.00 C1520.39,403.00 1508.36,414.66 1502.30,416.45 C1500.76,416.91 1499.44,416.44 1497.90,414.90 C1495.77,412.77 1495.72,412.25 1496.36,398.22 C1497.07,382.67 1496.68,381.00 1492.40,381.00 C1489.28,381.00 1487.43,384.04 1485.51,392.32 C1483.21,402.22 1480.32,409.35 1477.54,411.96 C1472.15,417.02 1468.68,410.88 1468.67,396.26 C1468.67,387.30 1468.44,385.96 1466.87,385.46 C1463.47,384.38 1461.20,386.71 1460.00,392.52 C1459.36,395.56 1459.00,399.70 1459.17,401.72 C1459.46,404.95 1459.09,405.67 1456.05,407.73 C1450.65,411.39 1449.44,410.55 1449.83,403.39 C1450.25,395.85 1448.62,389.55 1445.75,387.54 C1442.75,385.43 1434.43,385.62 1429.40,387.91 C1422.56,391.01 1418.00,399.61 1418.00,409.38 C1418.01,418.05 1423.40,424.00 1431.25,424.00 C1435.07,424.00 1443.25,419.26 1444.96,416.07 C1445.78,414.55 1447.06,414.00 1449.79,414.00 C1451.83,413.99 1455.06,413.04 1456.97,411.88 C1460.32,409.84 1460.48,409.83 1461.47,411.61 C1462.04,412.62 1463.92,414.93 1465.65,416.73 C1468.14,419.31 1469.61,420.00 1472.65,420.00 C1476.94,419.99 1482.30,417.18 1483.97,414.05 C1485.55,411.09 1486.69,411.52 1487.40,415.34 C1488.13,419.19 1491.33,422.56 1495.16,423.51 C1500.76,424.90 1513.48,416.17 1519.00,407.14 C1521.34,403.31 1524.88,401.26 1523.66,404.43 C1522.28,408.05 1521.78,423.05 1522.95,425.88 C1525.45,431.92 1533.17,432.09 1540.08,426.28 L 1543.11 423.73 L 1546.12 426.62 C1548.70,429.08 1549.93,429.50 1554.65,429.50 C1559.52,429.50 1560.47,429.15 1562.71,426.55 C1565.02,423.86 1565.20,423.02 1564.75,416.74 C1564.28,410.24 1564.39,409.79 1566.80,408.21 C1568.46,407.12 1569.48,406.93 1569.71,407.64 C1572.71,416.62 1579.98,423.41 1587.69,424.43 C1595.90,425.52 1609.32,420.93 1620.87,413.09 C1627.45,408.62 1628.00,408.40 1628.00,410.25 C1628.00,410.94 1629.30,414.25 1630.90,417.62 C1636.95,430.43 1648.76,433.73 1658.14,425.26 C1660.29,423.31 1662.30,421.97 1662.60,422.27 C1662.90,422.57 1663.83,426.12 1664.66,430.16 C1666.31,438.15 1669.24,445.87 1672.32,450.35 C1676.17,455.95 1683.32,458.50 1688.06,455.97 ZM 953.34 428.63 C955.14,427.88 958.68,424.90 961.20,422.02 L 965.78 416.78 L 968.91 419.09 C973.23,422.28 978.16,421.98 983.55,418.18 L 987.81 415.17 L 990.16 417.68 C993.03,420.77 998.44,423.62 1003.05,424.48 C1009.95,425.77 1023.14,421.35 1034.49,413.94 C1039.37,410.76 1042.19,409.44 1042.42,410.25 C1046.42,424.19 1053.38,429.42 1060.49,423.83 C1063.56,421.41 1067.28,414.08 1069.17,406.72 C1070.23,402.57 1070.70,401.95 1072.46,402.42 C1073.58,402.73 1075.29,402.98 1076.25,402.99 C1077.53,403.00 1078.00,403.82 1078.00,406.03 C1078.00,416.70 1090.83,426.37 1102.42,424.44 C1113.18,422.65 1129.68,413.94 1137.65,405.84 C1143.69,399.71 1141.57,399.44 1132.27,405.16 C1120.67,412.30 1109.31,417.16 1102.90,417.74 C1097.12,418.27 1096.98,418.22 1093.02,414.25 C1089.40,410.64 1089.00,409.74 1089.00,405.24 C1089.00,402.44 1089.55,399.81 1090.25,399.26 C1090.94,398.72 1095.00,397.99 1099.28,397.65 C1107.42,396.99 1111.25,395.60 1114.37,392.14 C1116.83,389.42 1115.84,385.27 1112.41,383.96 C1108.06,382.31 1095.94,382.85 1091.44,384.89 C1087.04,386.89 1080.27,394.07 1079.35,397.72 C1078.67,400.47 1077.91,400.55 1075.01,398.21 C1072.99,396.57 1072.90,396.08 1073.95,392.19 C1075.32,387.11 1074.79,386.00 1071.01,386.00 C1066.77,386.00 1064.72,389.39 1061.54,401.66 C1058.63,412.95 1055.70,420.00 1053.92,420.00 C1052.23,420.00 1048.72,410.90 1048.45,405.83 C1048.31,403.24 1047.93,400.70 1047.61,400.19 C1047.30,399.67 1046.74,396.03 1046.37,392.08 C1045.69,384.71 1044.00,382.15 1041.04,383.98 C1039.98,384.63 1039.82,386.90 1040.32,394.43 L 1040.95 404.06 L 1035.41 407.60 C1025.64,413.85 1016.26,417.37 1009.18,417.44 C1003.12,417.50 1002.71,417.34 999.43,413.76 C996.50,410.58 996.00,409.31 996.00,405.14 C996.00,402.42 996.55,399.81 997.25,399.26 C997.94,398.72 1002.04,397.99 1006.36,397.64 C1015.27,396.92 1021.71,394.02 1022.64,390.30 C1023.95,385.07 1020.55,383.00 1010.68,383.01 C1002.34,383.01 998.14,384.34 993.30,388.47 C988.44,392.64 985.85,398.53 985.62,406.00 C985.45,411.24 985.27,411.59 981.78,413.48 L 978.11 415.46 L 975.56 413.05 C973.10,410.74 973.00,410.21 973.00,398.95 C973.00,386.17 972.23,384.22 967.59,385.39 C964.19,386.24 962.80,391.17 962.55,403.34 L 962.33 413.41 L 958.52 417.79 C953.57,423.48 948.97,425.76 945.57,424.21 C940.79,422.04 936.03,409.21 936.02,398.50 C936.01,393.66 936.88,390.40 940.52,381.61 C951.43,355.23 958.90,317.92 957.71,295.71 C957.08,283.94 955.69,278.95 951.90,274.89 C949.00,271.79 943.77,270.98 939.93,273.04 C935.35,275.49 930.62,289.51 927.45,310.00 C925.35,323.64 924.36,373.71 925.85,390.91 C927.12,405.51 928.44,403.50 912.37,411.57 C903.73,415.91 899.87,417.29 895.14,417.72 C889.07,418.27 889.02,418.25 885.02,414.25 C881.13,410.37 880.38,408.17 880.98,402.50 C881.35,399.01 882.81,398.31 890.99,397.68 C902.51,396.79 908.93,392.86 907.59,387.50 C906.74,384.12 903.50,383.00 894.68,383.02 C885.95,383.05 880.94,385.10 875.88,390.70 C867.29,400.23 868.65,413.38 878.99,420.88 C888.29,427.61 902.36,424.97 920.87,413.00 C924.28,410.80 927.24,409.00 927.44,409.00 C927.65,409.00 928.58,411.43 929.51,414.40 C933.43,426.86 943.37,432.80 953.34,428.63 ZM 1192.36 418.50 C1198.70,401.94 1206.75,388.00 1209.97,388.00 C1210.67,388.00 1210.94,392.62 1210.76,401.92 C1210.52,414.71 1210.67,416.06 1212.60,418.67 C1215.98,423.24 1219.13,424.60 1222.81,423.08 C1226.99,421.35 1232.56,415.78 1235.11,410.79 C1240.76,399.71 1240.61,393.70 1234.93,403.63 C1230.72,410.99 1226.26,416.00 1223.93,416.00 C1220.53,416.00 1219.89,412.74 1220.61,399.14 C1221.25,386.87 1221.19,386.19 1219.14,384.14 C1214.08,379.08 1203.22,382.85 1196.51,391.99 C1194.49,394.74 1192.42,397.00 1191.91,397.00 C1191.41,397.00 1191.00,395.01 1191.00,392.57 C1191.00,389.88 1190.38,387.53 1189.43,386.57 C1187.57,384.71 1186.57,384.63 1183.82,386.10 C1181.89,387.13 1181.81,387.76 1182.48,397.49 C1183.26,409.03 1182.68,411.08 1177.92,413.54 C1170.86,417.19 1167.39,411.44 1168.46,397.83 C1169.26,387.55 1168.30,384.71 1164.19,385.19 C1160.49,385.62 1159.12,389.03 1158.36,399.69 C1157.52,411.53 1159.53,416.63 1166.33,419.92 L 1170.91 422.13 L 1175.33 420.18 C1177.75,419.11 1180.05,417.73 1180.43,417.11 C1181.68,415.09 1183.00,415.96 1183.00,418.80 C1183.00,422.36 1184.80,424.17 1187.97,423.79 C1189.92,423.56 1190.85,422.44 1192.36,418.50 ZM 971.46 373.38 C973.43,372.62 976.31,367.31 975.48,365.97 C974.64,364.61 970.64,364.76 969.20,366.20 C967.92,367.48 967.56,372.23 968.67,373.33 C969.48,374.15 969.46,374.15 971.46,373.38 ZM 1168.69 371.83 C1169.96,370.63 1171.00,368.60 1171.00,367.33 C1171.00,365.41 1170.47,365.00 1168.04,365.00 C1162.65,365.00 1160.77,372.99 1165.94,373.92 C1166.18,373.96 1167.41,373.02 1168.69,371.83 ZM 1826.56 184.22 C1826.28,183.95 1825.15,184.79 1824.06,186.11 L 1822.07 188.50 L 1822.03 183.31 C1821.99,177.08 1820.57,175.83 1817.52,179.37 L 1815.27 182.00 L 1782.74 182.00 C1754.00,182.00 1750.14,181.82 1749.61,180.42 C1749.27,179.55 1749.00,175.09 1749.00,170.50 C1749.00,165.91 1749.27,161.45 1749.61,160.58 C1750.14,159.20 1753.20,159.00 1773.61,159.00 C1795.33,159.00 1797.14,159.14 1798.92,160.92 C1799.97,161.97 1801.10,162.57 1801.42,162.25 C1802.37,161.29 1802.08,139.00 1801.11,139.00 C1800.62,139.00 1799.95,139.68 1799.64,140.50 C1799.32,141.32 1798.37,142.00 1797.53,142.00 C1796.36,142.00 1796.00,140.82 1796.00,137.00 C1796.00,132.16 1794.82,130.42 1793.64,133.50 C1793.15,134.77 1789.70,135.00 1771.10,135.00 L 1749.14 135.00 L 1749.32 126.25 L 1749.50 117.50 L 1786.28 117.24 C1818.34,117.01 1823.13,117.17 1823.63,118.49 C1825.18,122.53 1826.00,118.91 1826.00,108.00 C1826.00,97.11 1825.18,93.47 1823.64,97.50 C1823.32,98.32 1822.37,99.00 1821.53,99.00 C1820.38,99.00 1820.00,97.87 1820.00,94.50 C1820.00,90.09 1818.78,88.53 1817.64,91.50 C1817.14,92.80 1810.75,93.00 1768.53,93.00 C1724.53,93.00 1716.41,93.41 1721.50,95.36 C1722.81,95.86 1723.00,102.36 1723.00,145.41 L 1723.00 194.89 L 1720.78 196.44 C1718.61,197.96 1718.65,198.00 1722.53,198.02 C1724.71,198.02 1727.13,198.43 1727.90,198.91 C1729.65,200.02 1728.61,203.00 1726.47,203.00 C1725.60,203.00 1725.16,203.45 1725.50,204.00 C1725.90,204.64 1743.47,205.00 1774.94,205.00 C1819.17,205.00 1823.88,205.16 1825.13,206.66 C1826.31,208.09 1826.54,206.68 1826.78,196.52 C1826.94,190.04 1826.84,184.50 1826.56,184.22 ZM 668.09 203.67 C680.61,200.50 690.07,194.35 695.89,185.57 C698.27,181.99 698.50,180.76 698.50,171.57 C698.50,162.45 698.25,161.08 695.83,157.00 C694.36,154.52 692.33,151.77 691.33,150.89 C690.32,150.00 687.99,147.62 686.14,145.61 C679.07,137.89 671.94,136.14 643.00,135.01 C630.49,134.52 619.02,133.61 617.17,132.94 C614.26,131.90 613.92,131.42 614.47,129.13 C616.74,119.54 631.01,114.05 650.52,115.25 C659.36,115.80 678.00,120.72 677.69,122.42 C677.59,123.01 678.17,123.50 679.00,123.50 C681.22,123.50 684.00,126.17 684.00,128.31 C684.00,129.33 684.48,130.01 685.07,129.81 C686.42,129.36 697.01,109.35 696.29,108.62 C696.00,108.33 694.47,108.36 692.90,108.67 C689.53,109.34 688.22,107.32 689.94,104.11 C690.95,102.23 690.76,102.07 687.77,102.14 C685.97,102.18 682.03,101.11 679.00,99.76 C666.88,94.35 657.66,92.57 641.50,92.53 C630.01,92.51 624.75,92.94 619.00,94.39 C599.03,99.43 588.04,110.65 588.04,126.00 C588.04,134.61 590.45,139.71 598.27,147.64 C608.34,157.85 613.55,159.28 646.50,160.91 C668.16,161.98 672.00,162.88 672.00,166.85 C671.99,171.46 668.39,175.93 662.54,178.61 C646.28,186.06 615.63,183.76 603.16,174.16 C601.87,173.17 600.51,170.85 600.13,169.00 C599.76,167.16 599.00,165.50 598.46,165.32 C597.56,165.02 586.00,186.87 586.00,188.87 C586.00,189.34 587.13,189.51 588.51,189.24 C591.89,188.60 594.28,190.62 592.98,193.04 C591.60,195.61 591.67,195.71 594.75,195.70 C596.26,195.70 601.10,197.31 605.50,199.27 C617.21,204.51 627.22,206.04 646.50,205.51 C655.44,205.27 664.97,204.46 668.09,203.67 ZM 1291.89 203.98 C1308.29,200.04 1321.64,190.12 1328.26,176.93 C1336.99,159.55 1335.10,135.09 1323.89,120.24 C1313.00,105.82 1302.72,98.41 1288.00,94.37 C1279.02,91.92 1257.09,91.88 1248.00,94.30 C1225.05,100.42 1211.09,115.85 1207.93,138.56 C1205.59,155.34 1210.37,169.59 1223.09,183.84 C1231.38,193.12 1237.36,197.47 1247.16,201.35 C1259.83,206.37 1277.55,207.41 1291.89,203.98 ZM 1684.50 202.99 C1692.82,200.36 1697.54,198.05 1705.20,192.86 C1708.33,190.74 1711.59,189.00 1712.45,189.00 C1714.50,189.00 1714.38,188.02 1711.93,185.00 C1710.82,183.62 1707.67,179.24 1704.93,175.25 C1702.18,171.26 1699.60,168.00 1699.19,168.00 C1698.77,168.00 1697.63,166.65 1696.66,165.00 C1694.47,161.29 1693.00,161.15 1693.00,164.65 C1693.00,170.26 1681.58,177.96 1668.00,181.52 C1654.74,185.00 1634.59,181.75 1624.85,174.56 C1618.63,169.97 1616.52,164.02 1616.61,151.31 C1616.66,143.05 1616.99,141.45 1619.88,135.60 C1623.28,128.69 1628.99,122.93 1635.00,120.33 C1646.83,115.23 1658.61,113.93 1670.77,116.39 C1680.68,118.40 1689.99,121.83 1689.71,123.37 C1689.59,123.99 1690.40,124.50 1691.50,124.50 C1692.78,124.50 1694.04,125.67 1695.00,127.73 C1695.82,129.50 1696.73,130.97 1697.00,130.98 C1697.59,131.00 1709.59,112.24 1710.49,109.88 C1711.00,108.55 1710.43,108.28 1707.31,108.38 C1703.35,108.50 1702.88,107.70 1704.52,103.70 C1705.13,102.19 1704.87,101.99 1702.88,102.50 C1701.38,102.87 1697.89,102.02 1693.50,100.21 C1678.52,94.06 1670.77,92.51 1655.00,92.54 C1638.31,92.56 1629.68,94.46 1617.55,100.77 C1592.40,113.85 1582.77,143.82 1595.46,169.50 C1599.94,178.56 1613.03,192.34 1621.50,196.89 C1634.86,204.07 1644.32,206.02 1663.50,205.55 C1674.47,205.28 1679.01,204.72 1684.50,202.99 ZM 726.00 204.49 C726.00,204.20 725.47,203.12 724.82,202.08 C723.83,200.49 724.50,198.33 729.00,188.59 L 734.36 177.00 L 757.93 177.04 L 781.50 177.08 L 785.27 185.29 C787.35,189.81 789.03,193.90 789.02,194.39 C789.01,194.88 788.21,195.88 787.25,196.61 C785.69,197.79 785.87,197.94 789.00,197.98 C794.06,198.05 795.84,199.39 794.25,201.96 C793.56,203.07 793.00,204.20 793.00,204.49 C793.00,204.77 799.30,205.00 807.00,205.00 C814.70,205.00 821.00,204.73 821.00,204.39 C821.00,204.06 819.88,202.90 818.50,201.82 C817.12,200.74 816.00,199.45 816.00,198.96 C816.00,198.47 810.66,186.69 804.14,172.79 C797.61,158.88 790.91,144.57 789.24,141.00 C787.58,137.43 782.98,127.55 779.02,119.05 C772.65,105.40 772.00,103.47 773.41,102.44 C775.90,100.62 775.32,100.00 771.11,100.00 C766.87,100.00 765.11,97.99 767.56,95.95 C768.35,95.29 769.00,94.36 769.00,93.88 C769.00,93.39 762.03,93.00 753.50,93.00 C743.52,93.00 738.00,93.37 738.00,94.03 C738.00,94.60 738.67,95.32 739.50,95.64 C740.33,95.95 741.00,96.70 741.00,97.30 C741.00,97.89 731.51,119.78 719.91,145.94 C704.89,179.80 698.05,194.15 696.16,195.75 L 693.50 197.99 L 698.69 198.00 C701.55,198.00 704.14,198.41 704.45,198.92 C705.07,199.93 702.42,203.00 700.93,203.00 C700.42,203.00 700.00,203.45 700.00,204.00 C700.00,204.62 705.00,205.00 713.00,205.00 C720.15,205.00 726.00,204.77 726.00,204.49 ZM 855.50 204.00 C855.84,203.45 855.40,203.00 854.53,203.00 C851.85,203.00 851.49,199.88 851.79,179.57 L 852.08 160.00 L 866.01 160.00 L 879.94 160.00 L 883.79 165.25 C885.90,168.14 891.39,175.99 895.98,182.70 C903.08,193.06 904.14,195.13 903.04,196.45 C901.93,197.79 902.16,198.00 904.76,198.00 C908.35,198.00 910.92,200.48 909.16,202.24 C908.52,202.88 908.00,203.76 908.00,204.20 C908.00,204.64 920.83,205.00 936.50,205.00 C952.17,205.00 965.00,204.77 965.00,204.49 C965.00,204.20 964.47,203.12 963.82,202.08 C962.83,200.49 963.50,198.33 968.00,188.59 L 973.36 177.00 L 996.67 177.00 L 1019.97 177.00 L 1023.36 183.75 C1028.19,193.39 1028.53,194.88 1026.34,196.54 C1024.64,197.83 1024.74,197.94 1027.67,197.97 C1029.41,197.99 1031.55,198.27 1032.42,198.61 C1034.42,199.38 1034.47,201.88 1032.51,202.64 C1031.68,202.95 1031.26,203.61 1031.56,204.10 C1032.17,205.08 1060.00,205.38 1060.00,204.41 C1060.00,204.09 1059.09,203.07 1057.99,202.16 C1056.15,200.65 1043.58,174.59 1019.81,123.04 C1011.93,105.94 1011.03,103.45 1012.42,102.43 C1014.92,100.61 1014.30,100.00 1009.97,100.00 C1005.52,100.00 1003.35,97.50 1006.35,95.83 C1010.31,93.61 1007.33,93.00 992.50,93.00 C982.52,93.00 977.00,93.37 977.00,94.03 C977.00,94.60 977.67,95.32 978.50,95.64 C979.33,95.95 980.00,96.62 980.00,97.12 C980.00,98.13 942.08,183.85 938.42,191.13 C937.14,193.67 935.45,196.00 934.66,196.30 C932.66,197.07 929.29,194.47 927.36,190.69 C926.47,188.94 921.52,181.58 916.37,174.34 C911.22,167.09 907.00,160.91 907.00,160.59 C907.00,160.26 907.88,160.00 908.96,160.00 C913.25,160.00 922.10,155.72 926.34,151.61 C932.50,145.62 935.34,137.81 934.76,128.50 C934.18,119.37 931.67,114.58 922.65,105.45 C916.39,99.11 914.63,97.93 908.50,95.94 C901.81,93.78 899.71,93.66 861.25,93.24 C833.90,92.94 821.00,93.13 821.00,93.83 C821.00,94.40 821.90,95.15 823.00,95.50 C824.96,96.12 825.00,97.01 825.00,145.51 L 825.00 194.89 L 822.78 196.44 C820.63,197.95 820.71,198.00 825.22,198.00 C830.67,198.00 832.22,199.60 829.16,202.07 C827.97,203.03 827.00,204.09 827.00,204.41 C827.00,205.46 854.85,205.06 855.50,204.00 ZM 1125.50 204.00 C1125.84,203.45 1125.43,203.00 1124.59,203.00 C1121.29,203.00 1121.00,199.38 1121.00,158.07 L 1121.00 117.00 L 1138.25 116.88 C1158.94,116.75 1159.21,116.77 1160.61,118.57 C1161.22,119.36 1162.01,120.00 1162.36,120.00 C1162.71,120.00 1163.00,114.60 1163.00,108.00 C1163.00,97.11 1162.18,93.47 1160.64,97.50 C1160.32,98.32 1159.37,99.00 1158.53,99.00 C1157.38,99.00 1157.00,97.87 1157.00,94.50 C1157.00,90.09 1155.78,88.53 1154.64,91.50 C1153.77,93.77 1057.88,93.77 1056.00,91.50 C1053.51,88.50 1053.00,90.21 1053.00,101.44 C1053.00,111.93 1053.92,116.25 1055.36,112.49 C1055.68,111.67 1056.63,111.00 1057.47,111.00 C1058.62,111.00 1059.00,112.13 1059.00,115.50 C1059.00,119.88 1060.22,121.47 1061.34,118.55 C1061.79,117.38 1065.04,117.04 1077.93,116.80 L 1093.96 116.50 L 1094.23 155.85 L 1094.50 195.20 L 1092.00 196.56 C1089.62,197.86 1089.75,197.92 1094.69,197.96 C1100.64,198.01 1102.30,199.53 1099.16,202.07 C1097.97,203.03 1097.00,204.09 1097.00,204.41 C1097.00,205.46 1124.85,205.06 1125.50,204.00 ZM 1372.00 204.50 C1372.00,204.23 1371.09,203.09 1369.98,201.98 C1368.07,200.07 1367.97,198.89 1368.23,179.73 L 1368.50 159.50 L 1390.73 159.23 C1411.58,158.98 1413.08,159.08 1414.90,160.90 C1415.96,161.96 1417.10,162.57 1417.42,162.25 C1418.37,161.29 1418.08,139.00 1417.11,139.00 C1416.62,139.00 1415.95,139.68 1415.64,140.50 C1415.32,141.32 1414.37,142.00 1413.53,142.00 C1412.36,142.00 1412.00,140.82 1412.00,137.00 C1412.00,132.16 1410.82,130.42 1409.64,133.50 C1409.15,134.77 1405.86,135.00 1388.53,135.00 L 1368.00 135.00 L 1368.00 126.00 L 1368.00 117.00 L 1398.75 116.86 C1435.62,116.69 1437.19,116.76 1438.61,118.58 C1439.22,119.36 1440.01,120.00 1440.36,120.00 C1440.71,120.00 1441.00,114.53 1441.00,107.85 C1441.00,96.13 1440.93,95.75 1439.17,97.35 C1436.11,100.11 1435.00,99.35 1435.00,94.50 C1435.00,90.09 1433.78,88.53 1432.64,91.50 C1432.14,92.80 1425.91,93.00 1385.03,93.00 C1341.55,93.00 1333.53,93.45 1340.00,95.50 C1341.96,96.12 1342.00,97.01 1342.00,145.45 L 1342.00 194.76 L 1339.75 196.33 C1337.56,197.85 1337.63,197.90 1342.19,197.95 C1347.68,198.01 1349.21,199.60 1346.16,202.07 C1344.97,203.03 1344.00,204.09 1344.00,204.41 C1344.00,204.73 1350.30,205.00 1358.00,205.00 C1365.70,205.00 1372.00,204.77 1372.00,204.50 ZM 1475.46 204.07 C1475.77,203.56 1475.12,202.86 1474.01,202.50 C1472.08,201.89 1472.00,201.04 1472.00,180.38 L 1472.00 158.90 L 1494.96 159.20 C1516.56,159.48 1518.01,159.62 1519.43,161.50 C1520.80,163.32 1520.94,162.38 1520.97,151.10 C1521.00,139.14 1520.93,138.75 1519.17,140.35 C1516.03,143.19 1515.00,142.36 1515.00,137.00 C1515.00,134.25 1514.55,132.00 1514.00,132.00 C1513.45,132.00 1513.00,132.68 1513.00,133.50 C1513.00,134.78 1510.06,135.00 1492.50,135.00 L 1472.00 135.00 L 1472.00 126.00 L 1472.00 117.00 L 1504.75 116.88 C1542.42,116.75 1541.15,116.70 1542.61,118.57 C1543.22,119.36 1544.01,120.00 1544.36,120.00 C1545.36,120.00 1545.11,97.19 1544.10,96.56 C1543.61,96.26 1542.95,96.68 1542.64,97.51 C1542.32,98.33 1541.37,99.00 1540.53,99.00 C1539.39,99.00 1539.00,97.88 1539.00,94.56 C1539.00,89.56 1537.64,87.93 1536.02,90.97 C1534.95,92.97 1534.12,93.00 1487.96,93.00 C1444.54,93.00 1436.53,93.45 1443.00,95.50 C1444.96,96.12 1445.00,97.01 1445.00,145.51 L 1445.00 194.89 L 1442.78 196.44 C1440.64,197.94 1440.75,198.00 1445.61,198.00 C1448.39,198.00 1450.95,198.28 1451.30,198.63 C1452.31,199.64 1450.08,203.00 1448.41,203.00 C1447.57,203.00 1447.16,203.45 1447.50,204.00 C1448.29,205.27 1474.67,205.34 1475.46,204.07 ZM 1583.00 204.24 C1583.00,203.82 1581.99,203.03 1580.75,202.49 L 1578.50 201.50 L 1578.24 152.23 L 1577.98 102.96 L 1580.63 101.95 C1584.20,100.59 1583.36,100.09 1577.19,99.87 C1571.42,99.66 1570.18,97.79 1574.50,95.82 C1575.88,95.19 1577.00,94.30 1577.00,93.84 C1577.00,93.38 1570.25,93.00 1562.00,93.00 C1548.13,93.00 1543.77,93.84 1549.00,95.50 C1550.96,96.12 1551.00,97.01 1551.00,145.54 L 1551.00 194.94 L 1548.25 196.43 L 1545.50 197.92 L 1550.50 197.98 C1556.92,198.05 1558.77,199.09 1556.50,201.35 C1555.60,202.26 1554.19,203.00 1553.37,203.00 C1552.55,203.00 1552.16,203.45 1552.50,204.00 C1553.22,205.17 1583.00,205.40 1583.00,204.24 ZM 267.00 532.43 C212.91,525.50 165.02,502.68 125.87,465.17 C89.31,430.14 66.39,390.46 54.65,341.84 C46.62,308.61 46.38,264.88 54.04,229.60 C59.49,204.52 74.61,169.22 89.22,147.49 C124.35,95.22 176.66,57.93 235.72,43.05 C272.35,33.82 313.47,33.15 352.50,41.16 C376.99,46.18 407.95,58.93 430.81,73.42 C452.30,87.04 482.03,113.13 490.53,125.82 C491.88,127.85 496.14,133.77 500.00,139.00 C522.89,169.98 537.88,206.86 544.61,248.71 C546.79,262.25 547.56,295.21 546.04,309.26 C538.63,377.43 507.05,435.51 453.29,479.82 C437.98,492.45 409.13,509.14 388.43,517.36 C371.08,524.24 344.08,530.66 322.79,532.95 C309.70,534.36 279.91,534.08 267.00,532.43 ZM 310.84 459.80 C315.41,458.41 320.95,453.33 323.14,448.51 C325.87,442.50 325.43,435.38 321.44,420.64 C319.48,413.41 315.84,399.62 313.35,390.00 C292.42,308.92 292.67,309.74 286.83,304.30 C281.47,299.29 279.25,299.00 246.43,299.00 L 215.80 299.00 L 216.43 291.75 C216.77,287.76 217.54,279.91 218.12,274.30 L 219.18 264.10 L 202.24 245.30 C192.93,234.96 184.56,225.06 183.65,223.30 C180.50,217.19 182.39,207.58 187.68,202.79 C190.51,200.23 196.48,198.00 200.50,198.00 C207.28,198.00 210.22,200.28 226.44,218.12 C235.13,227.68 246.04,239.66 250.69,244.75 L 259.14 254.00 L 286.32 253.98 C309.35,253.97 314.57,253.69 320.52,252.14 C324.38,251.14 328.50,249.80 329.68,249.17 C333.41,247.18 336.00,241.78 336.00,236.01 C336.00,231.25 335.64,230.41 332.12,226.88 C328.67,223.44 327.69,223.00 323.37,223.00 C320.68,223.00 305.97,226.13 290.50,229.99 C275.10,233.84 262.45,236.99 262.40,236.99 C262.34,237.00 252.29,225.74 240.06,211.97 C224.66,194.65 216.57,186.31 213.76,184.88 C207.77,181.82 195.79,182.51 187.29,186.40 C179.65,189.89 171.47,198.14 167.14,206.72 C163.56,213.82 157.81,232.17 154.69,246.50 C152.75,255.39 152.51,259.40 152.56,282.50 C152.59,303.55 152.92,309.69 154.28,314.73 C156.56,323.25 160.09,329.81 164.66,334.07 C174.76,343.47 177.74,344.00 220.68,344.00 L 255.57 344.00 L 258.28 354.75 C261.80,368.76 270.04,400.42 273.95,415.00 C275.64,421.33 278.20,431.11 279.64,436.75 C282.79,449.13 286.29,455.08 292.20,458.12 C299.67,461.96 302.83,462.24 310.84,459.80 ZM 137.02 457.49 C138.63,456.66 140.40,455.11 140.97,454.06 C142.64,450.94 142.19,444.51 140.12,441.88 L 138.24 439.49 L 158.37 433.24 C169.44,429.80 178.84,426.99 179.25,427.00 C179.66,427.00 180.00,429.56 180.00,432.70 C180.00,437.55 179.59,438.82 177.25,441.26 C171.63,447.12 174.68,457.10 182.54,458.57 C186.24,459.27 191.37,457.04 192.97,454.06 C194.82,450.60 194.17,445.36 191.50,442.18 C189.43,439.72 189.00,438.16 189.00,433.11 C189.00,429.75 189.34,427.00 189.75,427.00 C190.16,426.99 199.56,429.80 210.63,433.24 L 230.77 439.49 L 228.38 442.32 C221.92,450.00 230.61,461.89 239.88,458.05 C246.19,455.43 247.83,447.15 243.09,441.75 C241.49,439.93 240.02,437.13 239.84,435.53 C239.52,432.76 238.98,432.46 228.50,429.27 C200.31,420.68 194.31,418.82 191.75,417.82 L 189.00 416.76 L 189.00 398.38 L 189.00 380.00 L 192.50 380.00 C194.73,380.00 196.00,379.52 196.00,378.68 C196.00,377.77 199.49,376.85 207.32,375.68 C227.61,372.64 242.00,365.95 242.00,359.54 C242.00,356.43 238.56,355.13 225.53,353.29 C210.97,351.23 158.08,351.19 143.65,353.22 C134.00,354.58 133.79,354.57 133.02,352.55 C132.58,351.42 130.42,345.77 128.21,340.00 C118.73,315.24 115.98,307.69 116.29,307.38 C116.47,307.19 119.59,309.94 123.22,313.48 C132.85,322.88 138.00,323.61 138.00,315.60 C138.00,298.68 114.94,235.36 101.82,216.25 C95.74,207.39 90.07,213.10 90.02,228.12 C90.00,235.02 92.09,250.45 93.56,254.28 C93.93,255.27 93.42,256.05 92.12,256.46 C91.01,256.81 89.83,257.97 89.49,259.03 C88.91,260.87 96.94,283.20 118.97,341.00 L 127.54 363.50 L 132.21 366.63 C137.98,370.51 147.49,373.46 161.10,375.60 C167.42,376.59 171.81,377.78 172.30,378.62 C172.74,379.38 174.66,380.00 176.57,380.00 L 180.04 380.00 L 179.77 398.66 L 179.50 417.32 L 165.00 421.71 C126.59,433.35 128.00,432.82 128.00,435.64 C128.00,437.05 126.87,439.55 125.50,441.18 C122.21,445.09 121.49,448.34 123.06,452.14 C124.41,455.40 129.25,458.99 132.30,459.00 C133.29,459.00 135.41,458.32 137.02,457.49 ZM 460.00 449.52 L 460.00 442.05 L 441.75 441.77 L 423.50 441.50 L 423.24 375.77 L 422.99 310.05 L 441.24 309.77 L 459.50 309.50 L 459.79 301.75 L 460.08 294.00 L 380.00 294.00 L 299.92 294.00 L 300.21 301.75 L 300.50 309.50 L 347.75 309.76 L 395.00 310.02 L 395.00 376.01 L 395.00 442.00 L 364.00 442.00 L 333.00 442.00 L 333.00 449.50 L 333.00 457.00 L 396.50 457.00 L 460.00 457.00 L 460.00 449.52 ZM 334.62 284.44 C341.40,279.37 343.28,271.63 339.37,264.86 C335.48,258.12 334.73,258.00 293.95,258.00 L 257.39 258.00 L 233.09 231.08 C218.97,215.43 207.57,203.65 205.88,202.95 C204.23,202.27 200.93,201.97 198.27,202.27 C194.41,202.71 192.90,203.52 189.79,206.86 C186.62,210.26 186.00,211.63 186.01,215.21 C186.01,217.90 186.85,220.85 188.26,223.13 C189.49,225.13 202.13,239.61 216.35,255.31 C234.89,275.79 243.23,284.30 245.85,285.40 C248.97,286.72 255.53,286.91 290.68,286.72 C330.53,286.51 331.95,286.43 334.62,284.44 ZM 404.33 285.53 C405.14,284.72 411.32,274.03 418.07,261.78 C424.82,249.53 434.78,231.49 440.20,221.70 C445.62,211.91 449.84,203.55 449.58,203.12 C449.31,202.70 447.23,201.51 444.95,200.48 C440.88,198.64 440.78,198.64 439.65,200.52 C437.99,203.30 422.53,231.21 409.48,255.00 L 398.23 275.50 L 371.72 275.77 L 345.20 276.03 L 343.64 279.93 C342.79,282.08 341.62,284.12 341.04,284.47 C337.60,286.60 342.36,287.00 371.43,287.00 C397.75,287.00 403.10,286.76 404.33,285.53 ZM 247.50 179.64 C265.98,174.70 278.00,159.28 278.00,140.50 C278.00,124.61 269.63,111.40 255.04,104.22 C250.03,101.76 248.45,101.50 238.50,101.50 C228.00,101.50 227.19,101.65 220.77,104.88 C210.02,110.27 202.55,119.56 199.36,131.50 C192.00,159.05 219.95,187.00 247.50,179.64 ZM 717.55 527.58 C704.28,523.06 698.12,512.77 699.31,497.09 C700.33,483.65 710.01,467.93 724.69,455.88 C744.13,439.93 776.25,423.84 809.00,413.64 C824.89,408.69 847.46,403.00 851.18,403.00 L 854.28 403.00 L 853.76 411.25 C852.15,436.58 828.46,477.22 802.86,498.55 C792.07,507.54 787.92,510.40 776.00,517.01 C753.55,529.46 733.64,533.06 717.55,527.58 ZM 1301.50 495.54 C1291.49,491.89 1289.20,482.92 1295.20,470.91 C1303.90,453.51 1332.50,433.38 1360.32,425.09 C1371.78,421.67 1383.71,419.37 1384.72,420.39 C1385.74,421.41 1382.62,429.93 1376.98,441.50 C1364.90,466.33 1343.70,486.36 1321.38,494.04 C1313.64,496.70 1306.22,497.26 1301.50,495.54 ZM 1680.64 446.96 C1676.68,437.54 1673.00,417.30 1673.00,404.93 C1673.00,386.34 1680.64,408.91 1683.10,434.74 C1683.90,443.22 1683.93,447.30 1683.18,448.63 C1682.22,450.32 1681.98,450.16 1680.64,446.96 ZM 1551.61 423.42 C1550.51,420.57 1550.97,418.34 1553.01,416.49 C1554.11,415.50 1555.25,414.91 1555.53,415.20 C1556.34,416.01 1556.39,422.56 1555.60,423.84 C1554.57,425.51 1552.32,425.27 1551.61,423.42 ZM 1427.56 416.78 C1425.07,413.23 1425.96,401.18 1428.78,400.24 C1429.45,400.02 1430.00,400.56 1430.00,401.44 C1430.00,402.32 1431.80,405.00 1434.00,407.38 C1436.20,409.77 1438.00,412.10 1438.00,412.56 C1438.00,414.14 1432.62,419.00 1430.87,419.00 C1429.90,419.00 1428.41,418.00 1427.56,416.78 ZM 1438.57 402.79 C1436.50,399.84 1436.48,393.13 1438.54,392.35 C1440.79,391.48 1441.29,392.40 1441.78,398.37 C1442.28,404.42 1440.97,406.22 1438.57,402.79 ZM 1586.00 392.49 C1586.00,391.41 1592.60,388.01 1594.69,388.00 C1598.39,388.00 1598.34,389.96 1594.60,391.52 C1591.18,392.95 1586.00,393.53 1586.00,392.49 ZM 1674.00 380.63 C1674.00,374.44 1678.37,351.16 1682.47,335.50 C1686.75,319.15 1691.16,306.62 1696.02,297.00 C1703.35,282.48 1709.20,276.70 1716.00,277.23 C1719.00,277.46 1719.68,278.00 1720.74,281.00 C1724.62,291.95 1715.45,319.19 1697.52,350.00 C1689.13,364.42 1676.73,383.43 1675.03,384.48 C1674.38,384.88 1674.00,383.45 1674.00,380.63 ZM 1634.70 369.70 C1636.00,326.94 1639.84,289.15 1643.64,281.75 C1645.35,278.42 1648.48,278.16 1650.12,281.22 C1653.47,287.49 1651.99,315.35 1646.99,340.00 C1644.10,354.27 1636.73,379.43 1635.16,380.40 C1634.72,380.68 1634.51,375.86 1634.70,369.70 ZM 886.00 392.49 C886.00,391.41 892.60,388.01 894.69,388.00 C898.39,388.00 898.34,389.96 894.60,391.52 C891.18,392.95 886.00,393.53 886.00,392.49 ZM 1002.00 392.03 C1002.00,390.61 1007.48,388.00 1010.45,388.00 C1014.08,388.00 1013.60,389.85 1009.53,391.55 C1005.54,393.22 1002.00,393.44 1002.00,392.03 ZM 1095.00 392.03 C1095.00,390.74 1100.37,388.00 1102.89,388.00 C1106.41,388.00 1106.25,390.00 1102.60,391.52 C1098.55,393.22 1095.00,393.45 1095.00,392.03 ZM 934.05 379.00 C934.02,370.05 936.12,334.15 937.53,319.64 C940.49,289.13 942.82,279.00 946.87,279.00 C955.85,279.00 951.76,331.31 939.97,367.20 C935.25,381.59 934.07,383.95 934.05,379.00 ZM 1255.77 181.52 C1246.92,179.08 1240.80,174.86 1237.50,168.91 C1234.67,163.80 1234.50,162.88 1234.53,152.50 C1234.56,142.50 1234.82,140.98 1237.38,135.80 C1245.40,119.53 1265.71,111.39 1285.47,116.53 C1301.16,120.62 1306.08,126.75 1306.80,143.11 C1307.30,154.59 1305.65,161.27 1300.61,168.08 C1291.74,180.09 1272.03,185.99 1255.77,181.52 ZM 745.00 153.10 C745.00,151.62 756.21,127.00 756.88,127.01 C757.52,127.02 769.01,151.90 769.00,153.25 C769.00,153.66 763.60,154.00 757.00,154.00 C750.40,154.00 745.00,153.59 745.00,153.10 ZM 936.12 201.37 C933.33,199.41 934.74,198.04 939.58,198.02 C943.59,198.00 944.39,198.91 942.35,201.17 C940.31,203.42 939.10,203.46 936.12,201.37 ZM 984.40 151.55 C985.26,148.12 995.16,127.00 995.90,127.02 C996.50,127.04 1008.00,152.04 1008.00,153.33 C1008.00,153.70 1002.55,154.00 995.89,154.00 L 983.78 154.00 L 984.40 151.55 ZM 852.00 127.01 L 852.00 116.88 L 879.42 117.19 C894.50,117.36 907.20,117.86 907.65,118.31 C909.25,119.92 908.47,126.89 906.37,129.71 C901.65,136.04 899.74,136.47 874.75,136.82 L 852.00 137.14 L 852.00 127.01 Z" fill="rgb(254,254,254)"/>
</g>
</svg>